<svg width="401" height="115" viewBox="0 0 401 115" fill="none" xmlns="http://www.w3.org/2000/svg">
  <mask id="mask0_2049_323" style="mask-type:alpha" maskUnits="userSpaceOnUse" x="0" y="0" width="401" height="115">
    <path fill-rule="evenodd" clip-rule="evenodd" d="M0 0H401V115H0V0Z" fill="black" />
  </mask>
  <g mask="url(#mask0_2049_323)">
    <path d="M204.42 68.3691C204.42 68.3691 205.042 75.2729 209.771 79.8751C214.501 84.4776 221.595 85.0833 221.595 85.0833C221.595 85.0833 220.972 78.1795 216.243 73.5774C211.453 69.0354 204.42 68.3691 204.42 68.3691Z" fill="#C7B299" />
  </g>
  <mask id="mask1_2049_323" style="mask-type:alpha" maskUnits="userSpaceOnUse" x="0" y="0" width="401" height="115">
    <path fill-rule="evenodd" clip-rule="evenodd" d="M0 0H401V115H0V0Z" fill="black" />
  </mask>
  <g mask="url(#mask1_2049_323)">
    <path d="M30.6783 36.8799C30.6783 36.8799 30.056 43.7837 25.2645 48.3858C20.5345 52.9883 13.4409 53.5941 13.4409 53.5941C13.4409 53.5941 14.0634 46.6903 18.7925 42.0881C23.5839 37.4856 30.6783 36.8799 30.6783 36.8799Z" fill="#C7B299" />
  </g>
  <path d="M74.5245 33.75L39.0162 110.442L3.50773 33.75H0L37.1696 113.907H40.8011L78.0323 33.75H74.5245Z" fill="#C7B299" />
  <mask id="mask2_2049_323" style="mask-type:alpha" maskUnits="userSpaceOnUse" x="0" y="0" width="401" height="115">
    <path fill-rule="evenodd" clip-rule="evenodd" d="M0 0H401V115H0V0Z" fill="black" />
  </mask>
  <g mask="url(#mask2_2049_323)">
    <path d="M100.623 71.701H177.662C176.977 60.3162 173.057 51.1112 165.776 44.0863C158.62 36.9405 149.908 33.3676 139.516 33.3676C128.564 33.3676 119.417 37.001 111.949 44.2681C104.481 51.4745 100.748 60.6793 100.623 71.701ZM139.516 30.4004C151.651 30.4004 161.483 34.6394 169.074 43.057C176.729 51.293 180.587 61.2849 180.587 72.9729V74.6078H100.623C101.183 85.6901 105.166 94.6527 112.509 101.617C119.977 108.581 129.186 112.033 140.263 112.033C147.606 112.033 154.202 110.519 160.052 107.491C165.901 104.463 170.195 100.406 172.995 95.3188L175.857 96.9538C172.497 102.465 167.706 106.885 161.483 110.156C155.26 113.426 148.166 115 140.263 115C127.88 115 117.674 111.064 109.522 103.131C101.37 95.1975 97.3252 85.0843 97.3252 72.7305C97.3252 60.6794 101.308 50.6873 109.211 42.633C117.176 34.4577 127.257 30.4004 139.516 30.4004Z" fill="#C7B299" />
  </g>
  <mask id="mask3_2049_323" style="mask-type:alpha" maskUnits="userSpaceOnUse" x="0" y="0" width="401" height="115">
    <path fill-rule="evenodd" clip-rule="evenodd" d="M0 0H401V115H0V0Z" fill="black" />
  </mask>
  <g mask="url(#mask3_2049_323)">
    <path d="M251.465 32.0349V34.9418H224.893V95.2579C224.893 102.283 226.885 106.946 230.805 109.186C234.788 111.427 241.634 111.79 251.465 110.397V113.304C241.01 114.939 233.42 114.334 228.627 111.487C223.898 108.702 221.534 103.251 221.534 95.1973V34.8813H201.496V31.9743H221.534V10.1734L224.893 9.20459V31.9743H251.465V32.0349Z" fill="#C7B299" />
  </g>
  <path d="M347.797 33.75L313.213 110.442L278.691 33.75H275.28L311.478 113.907H315.008L351.145 33.75H347.797Z" fill="#C7B299" />
  <mask id="mask4_2049_323" style="mask-type:alpha" maskUnits="userSpaceOnUse" x="0" y="0" width="401" height="115">
    <path fill-rule="evenodd" clip-rule="evenodd" d="M0 0H401V115H0V0Z" fill="black" />
  </mask>
  <g mask="url(#mask4_2049_323)">
    <path d="M389.238 50.6861C384.511 55.2884 383.825 62.192 383.825 62.192C383.825 62.192 390.919 61.5865 395.649 56.984C400.378 52.3816 401.063 45.478 401.063 45.478C401.063 45.478 393.967 46.0836 389.238 50.6861Z" fill="#C7B299" />
  </g>
  <mask id="mask5_2049_323" style="mask-type:alpha" maskUnits="userSpaceOnUse" x="0" y="0" width="401" height="115">
    <path fill-rule="evenodd" clip-rule="evenodd" d="M0 0H401V115H0V0Z" fill="black" />
  </mask>
  <g mask="url(#mask5_2049_323)">
    <path d="M384.82 6.35904C385.816 5.14782 386.127 3.9366 385.816 2.72538C385.505 1.45383 384.571 0.666378 383.14 0.182063C381.709 -0.24193 380.401 0.0609852 379.281 1.15091C378.287 2.24105 377.976 3.45205 378.348 4.72383C378.722 5.99558 379.655 6.9039 381.087 7.38843C382.579 7.87296 383.825 7.5095 384.82 6.35904Z" fill="#C7B299" />
  </g>
  <path d="M379.324 33.75V113.907H382.576V63.4951V33.75H379.324Z" fill="#C7B299" />
</svg>