<svg width="300" height="86" viewBox="0 0 300 86" fill="none" xmlns="http://www.w3.org/2000/svg">
  <mask id="mask0_2049_58" style="mask-type:luminance" maskUnits="userSpaceOnUse" x="70" y="0" width="180" height="54">
    <path d="M249.697 0.602295H70.303V53.7713H249.697V0.602295Z" fill="#c7b299" />
  </mask>
  <g mask="url(#mask0_2049_58)">
    <path d="M161.754 32.2119C161.754 32.2119 162.033 35.4037 164.148 37.5317C166.264 39.6595 169.438 39.9395 169.438 39.9395C169.438 39.9395 169.159 36.7477 167.044 34.6198C164.899 32.5199 161.754 32.2119 161.754 32.2119Z" fill="#c7b299" />
  </g>
  <mask id="mask1_2049_58" style="mask-type:luminance" maskUnits="userSpaceOnUse" x="70" y="0" width="180" height="54">
    <path d="M249.697 0.602295H70.303V53.7713H249.697V0.602295Z" fill="#c7b299" />
  </mask>
  <g mask="url(#mask1_2049_58)">
    <path d="M84.0276 17.6538C84.0276 17.6538 83.7491 20.8457 81.6056 22.9736C79.4899 25.1015 76.3162 25.3815 76.3162 25.3815C76.3162 25.3815 76.5946 22.1896 78.7103 20.0618C80.854 17.9338 84.0276 17.6538 84.0276 17.6538Z" fill="#c7b299" />
  </g>
  <path d="M103.643 16.2064L87.7575 51.6644L71.8722 16.2064H70.303L86.9316 53.2659H88.556L105.212 16.2064H103.643Z" fill="#c7b299" />
  <mask id="mask2_2049_58" style="mask-type:luminance" maskUnits="userSpaceOnUse" x="70" y="0" width="180" height="54">
    <path d="M249.697 0.602295H70.303V53.7713H249.697V0.602295Z" fill="#c7b299" />
  </mask>
  <g mask="url(#mask2_2049_58)">
    <path d="M115.319 33.7525H149.783C149.476 28.4887 147.722 24.233 144.465 20.9852C141.264 17.6814 137.367 16.0295 132.718 16.0295C127.818 16.0295 123.726 17.7094 120.385 21.0692C117.044 24.401 115.374 28.6568 115.319 33.7525ZM132.718 14.6575C138.147 14.6575 142.545 16.6174 145.942 20.5093C149.366 24.317 151.092 28.9368 151.092 34.3405V35.0964H115.319C115.569 40.2201 117.351 44.3639 120.636 47.5838C123.977 50.8035 128.097 52.3994 133.052 52.3994C136.337 52.3994 139.287 51.6995 141.904 50.2996C144.521 48.8997 146.442 47.0238 147.696 44.6719L148.976 45.4279C147.473 47.9757 145.328 50.0196 142.545 51.5314C139.761 53.0434 136.588 53.7713 133.052 53.7713C127.511 53.7713 122.947 51.9515 119.299 48.2837C115.653 44.6158 113.843 39.9401 113.843 34.2284C113.843 28.6568 115.625 24.037 119.16 20.3133C122.724 16.5334 127.234 14.6575 132.718 14.6575Z" fill="#c7b299" />
  </g>
  <mask id="mask3_2049_58" style="mask-type:luminance" maskUnits="userSpaceOnUse" x="70" y="0" width="180" height="54">
    <path d="M249.697 0.602295H70.303V53.7713H249.697V0.602295Z" fill="#c7b299" />
  </mask>
  <g mask="url(#mask3_2049_58)">
    <path d="M182.8 15.4129V16.7567H170.913V44.6432C170.913 47.8911 171.804 50.0469 173.558 51.0829C175.339 52.1188 178.401 52.2868 182.8 51.6429V52.9867C178.124 53.7427 174.727 53.4627 172.583 52.1468C170.468 50.8589 169.41 48.339 169.41 44.6152V16.7288H160.446V15.3849H169.41V5.30541L170.913 4.85744V15.3849H182.8V15.4129Z" fill="#c7b299" />
  </g>
  <path d="M225.895 16.2064L210.424 51.6644L194.981 16.2064H193.455L209.649 53.2659H211.227L227.394 16.2064H225.895Z" fill="#c7b299" />
  <mask id="mask4_2049_58" style="mask-type:luminance" maskUnits="userSpaceOnUse" x="70" y="0" width="180" height="54">
    <path d="M249.697 0.602295H70.303V53.7713H249.697V0.602295Z" fill="#c7b299" />
  </mask>
  <g mask="url(#mask4_2049_58)">
    <path d="M244.435 24.0364C242.32 26.1643 242.013 29.3561 242.013 29.3561C242.013 29.3561 245.187 29.0761 247.303 26.9483C249.418 24.8203 249.725 21.6285 249.725 21.6285C249.725 21.6285 246.551 21.9086 244.435 24.0364Z" fill="#c7b299" />
  </g>
  <mask id="mask5_2049_58" style="mask-type:luminance" maskUnits="userSpaceOnUse" x="60" y="0" width="180" height="54">
    <path d="M239.394 0.602295H60V53.7713H239.394V0.602295Z" fill="#c7b299" />
  </mask>
  <g mask="url(#mask5_2049_58)">
    <path d="M232.156 3.54273C232.601 2.98276 232.741 2.4228 232.601 1.86282C232.462 1.27486 232.045 0.910872 231.404 0.686884C230.764 0.490895 230.179 0.630889 229.678 1.13486C229.233 1.63883 229.093 2.1988 229.261 2.78676C229.428 3.37474 229.845 3.79471 230.486 4.0187C231.154 4.2427 231.71 4.0747 232.156 3.54273Z" fill="#c7b299" />
  </g>
  <path d="M240 16.2064V53.2659H241.455V29.9587V16.2064H240Z" fill="#c7b299" />
  <path d="M5.80376 82.0409C5.80376 82.0409 5.78146 82.0409 5.73686 82.0409C5.69226 82.0409 5.64765 82.0409 5.60306 82.0409C5.5696 82.0409 5.54173 82.0409 5.51943 82.0409C3.77997 82.0305 2.4252 81.6579 1.45512 80.9234C0.485041 80.1889 0 79.1448 0 77.7912C0 76.4586 0.485041 75.4302 1.45512 74.7062C2.43635 73.9717 3.81342 73.5991 5.58633 73.5887C5.59748 73.5887 5.61978 73.5887 5.65323 73.5887C5.69783 73.5887 5.73686 73.5887 5.77031 73.5887C5.80376 73.5887 5.82607 73.5887 5.83721 73.5887C7.62127 73.5991 9.00949 73.9717 10.0019 74.7062C10.9943 75.4302 11.4904 76.4586 11.4904 77.7912C11.4904 79.1553 10.9887 80.2046 9.98515 80.9391C8.99276 81.6736 7.59897 82.0409 5.80376 82.0409ZM5.78704 81.0651C6.77942 81.0651 7.61012 80.9391 8.27914 80.6873C8.94816 80.425 9.45551 80.0524 9.80117 79.5698C10.1468 79.0871 10.3197 78.4942 10.3197 77.7912C10.3197 77.1091 10.1468 76.532 9.80117 76.0598C9.45551 75.5772 8.94816 75.2099 8.27914 74.958C7.61012 74.7062 6.77942 74.5803 5.78704 74.5803C5.77589 74.5803 5.74244 74.5803 5.68668 74.5803C5.64209 74.5803 5.6142 74.5803 5.60306 74.5803C4.63297 74.5803 3.819 74.7115 3.16113 74.9738C2.50325 75.2256 2.00706 75.5876 1.67255 76.0598C1.33804 76.532 1.17079 77.1091 1.17079 77.7912C1.17079 78.4837 1.33804 79.0714 1.67255 79.554C2.01821 80.0367 2.51998 80.4093 3.17785 80.6716C3.83573 80.9234 4.64412 81.0546 5.60306 81.0651C5.62536 81.0651 5.65881 81.0651 5.70341 81.0651C5.74801 81.0651 5.77589 81.0651 5.78704 81.0651ZM5.15147 85V70.2676H6.30553V85H5.15147ZM19.74 81.9465V80.1207L19.6898 79.8216V76.7681C19.6898 76.0651 19.4778 75.5247 19.0542 75.1469C18.6416 74.7691 18.0227 74.5803 17.1977 74.5803C16.629 74.5803 16.0882 74.6694 15.5753 74.8478C15.0623 75.0263 14.6274 75.2624 14.2707 75.5561L13.7355 74.7219C14.1815 74.3652 14.7167 74.0923 15.3411 73.9035C15.9655 73.7041 16.6234 73.6044 17.3148 73.6044C18.4521 73.6044 19.3273 73.872 19.9407 74.4071C20.565 74.9318 20.8773 75.7346 20.8773 76.8153V81.9465H19.74ZM16.7126 82.0252C16.0547 82.0252 15.4804 81.9255 14.9899 81.7261C14.5104 81.5162 14.1424 81.2329 13.886 80.8762C13.6295 80.5089 13.5013 80.0892 13.5013 79.617C13.5013 79.1867 13.6072 78.7985 13.8191 78.4523C14.042 78.0955 14.3989 77.8122 14.8896 77.6023C15.3913 77.382 16.0603 77.2718 16.8966 77.2718H19.9239V78.106H16.9301C16.0826 78.106 15.4917 78.2476 15.1572 78.531C14.8338 78.8143 14.6721 79.1658 14.6721 79.5855C14.6721 80.0577 14.8672 80.4355 15.2575 80.7188C15.6477 81.0021 16.1941 81.1438 16.8966 81.1438C17.5656 81.1438 18.1398 81.0021 18.6193 80.7188C19.1099 80.425 19.4667 80.0052 19.6898 79.4596L19.9574 80.2308C19.7343 80.7765 19.344 81.212 18.7866 81.5372C18.2402 81.8625 17.5489 82.0252 16.7126 82.0252ZM28.3203 82.0409C27.6066 82.0409 26.971 81.9307 26.4136 81.7104C25.8671 81.49 25.3988 81.1542 25.0086 80.703C24.6183 80.2519 24.3229 79.6957 24.1222 79.0346C23.9215 78.3631 23.8211 77.5866 23.8211 76.7051C23.8211 75.9182 23.8991 75.2309 24.0553 74.6432C24.2113 74.0451 24.4287 73.531 24.7076 73.1007C24.9863 72.6705 25.3097 72.3085 25.6776 72.0147C26.0567 71.7104 26.4637 71.4691 26.8986 71.2907C27.3446 71.1018 27.8018 70.9601 28.2701 70.8657L32.2173 70L32.418 71.0388L28.705 71.8258C28.4708 71.8783 28.1865 71.9517 27.852 72.0462C27.5286 72.1406 27.1941 72.2823 26.8484 72.4711C26.5139 72.66 26.2016 72.9223 25.9118 73.2581C25.6219 73.5939 25.3877 74.0294 25.2093 74.5645C25.0421 75.0892 24.9584 75.745 24.9584 76.532C24.9584 76.6999 24.9639 76.8363 24.9752 76.9412C24.9863 77.0357 24.9974 77.1406 25.0086 77.256C25.0308 77.3609 25.0476 77.5183 25.0588 77.7282L24.5403 77.319C24.6629 76.6789 24.9138 76.1228 25.293 75.6506C25.672 75.1679 26.146 74.7953 26.7146 74.5331C27.2944 74.2602 27.9356 74.1238 28.6381 74.1238C29.452 74.1238 30.1768 74.2917 30.8124 74.6275C31.448 74.9527 31.9441 75.4092 32.301 75.9969C32.6689 76.5845 32.8529 77.2665 32.8529 78.043C32.8529 78.809 32.6633 79.4964 32.2842 80.1049C31.9163 80.7135 31.3922 81.191 30.712 81.5372C30.0318 81.8731 29.2346 82.0409 28.3203 82.0409ZM28.4541 81.1123C29.0784 81.1123 29.6304 80.9811 30.1099 80.7188C30.5893 80.4459 30.9629 80.0787 31.2305 79.617C31.5092 79.1553 31.6487 78.6358 31.6487 78.0588C31.6487 77.4921 31.5092 76.9885 31.2305 76.5477C30.9629 76.107 30.5893 75.7608 30.1099 75.5089C29.6304 75.2466 29.0729 75.1154 28.4374 75.1154C27.8129 75.1154 27.261 75.2413 26.7815 75.4932C26.302 75.7346 25.9229 76.0755 25.6442 76.5163C25.3766 76.957 25.2428 77.4659 25.2428 78.043C25.2428 78.6201 25.3766 79.1395 25.6442 79.6013C25.9229 80.063 26.302 80.4302 26.7815 80.703C27.2721 80.9759 27.8296 81.1123 28.4541 81.1123ZM40.2653 82.0252C39.507 82.0252 38.8213 81.8625 38.2081 81.5372C37.5948 81.2014 37.1042 80.7241 36.7362 80.1049C36.3794 79.4753 36.201 78.7094 36.201 77.8069C36.201 76.9045 36.3794 76.1438 36.7362 75.5247C37.0931 74.8951 37.5781 74.4176 38.1913 74.0923C38.8046 73.7671 39.4959 73.6044 40.2653 73.6044C41.1016 73.6044 41.8486 73.7828 42.5065 74.1396C43.1755 74.4858 43.6996 74.9791 44.0787 75.6191C44.4578 76.2487 44.6474 76.978 44.6474 77.8069C44.6474 78.6464 44.4578 79.3809 44.0787 80.0105C43.6996 80.6401 43.1755 81.1333 42.5065 81.49C41.8486 81.8468 41.1016 82.0252 40.2653 82.0252ZM35.7327 85V73.6831H36.87V76.17L36.7529 77.8227L36.9202 79.4911V85H35.7327ZM40.1817 81.0336C40.8061 81.0336 41.3636 80.9024 41.8542 80.6401C42.3449 80.3672 42.7351 79.9895 43.025 79.5068C43.315 79.0136 43.4599 78.447 43.4599 77.8069C43.4599 77.1669 43.315 76.6054 43.025 76.1228C42.7351 75.6401 42.3449 75.2624 41.8542 74.9895C41.3636 74.7166 40.8061 74.5803 40.1817 74.5803C39.5572 74.5803 38.9942 74.7166 38.4924 74.9895C38.0017 75.2624 37.6116 75.6401 37.3216 76.1228C37.0429 76.6054 36.9035 77.1669 36.9035 77.8069C36.9035 78.447 37.0429 79.0136 37.3216 79.5068C37.6116 79.9895 38.0017 80.3672 38.4924 80.6401C38.9942 80.9024 39.5572 81.0336 40.1817 81.0336ZM47.5334 81.9465V73.6831H48.7209V80.2466L54.5916 73.6831H55.6453V81.9465H54.4578V75.3673L48.6038 81.9465H47.5334ZM65.8223 81.9465L62.2096 77.8541L63.1964 77.3032L67.2272 81.9465H65.8223ZM59.3829 81.9465V73.6831H60.5705V81.9465H59.3829ZM60.2025 78.2634V77.3032H63.0291V78.2634H60.2025ZM63.2967 77.9328L62.1928 77.7754L65.6885 73.6831H66.9763L63.2967 77.9328ZM74.7252 81.9465V80.1207L74.675 79.8216V76.7681C74.675 76.0651 74.4631 75.5247 74.0394 75.1469C73.6268 74.7691 73.0079 74.5803 72.1829 74.5803C71.6142 74.5803 71.0734 74.6694 70.5605 74.8478C70.0475 75.0263 69.6126 75.2624 69.2559 75.5561L68.7207 74.7219C69.1667 74.3652 69.7019 74.0923 70.3264 73.9035C70.9507 73.7041 71.6086 73.6044 72.3 73.6044C73.4373 73.6044 74.3125 73.872 74.9259 74.4071C75.5502 74.9318 75.8625 75.7346 75.8625 76.8153V81.9465H74.7252ZM71.6978 82.0252C71.0399 82.0252 70.4656 81.9255 69.9751 81.7261C69.4956 81.5162 69.1276 81.2329 68.8712 80.8762C68.6147 80.5089 68.4865 80.0892 68.4865 79.617C68.4865 79.1867 68.5924 78.7985 68.8043 78.4523C69.0273 78.0955 69.3841 77.8122 69.8748 77.6023C70.3765 77.382 71.0455 77.2718 71.8818 77.2718H74.9091V78.106H71.9153C71.0678 78.106 70.4769 78.2476 70.1424 78.531C69.819 78.8143 69.6573 79.1658 69.6573 79.5855C69.6573 80.0577 69.8524 80.4355 70.2427 80.7188C70.6329 81.0021 71.1794 81.1438 71.8818 81.1438C72.5508 81.1438 73.125 81.0021 73.6046 80.7188C74.0951 80.425 74.4519 80.0052 74.675 79.4596L74.9426 80.2308C74.7196 80.7765 74.3292 81.212 73.7718 81.5372C73.2254 81.8625 72.5341 82.0252 71.6978 82.0252ZM84.0701 81.9465V73.6831H85.2576V80.2466L91.1283 73.6831H92.182V81.9465H90.9945V75.3673L85.1405 81.9465H84.0701ZM95.9198 81.9465V73.6831H97.1073V77.3347H102.643V73.6831H103.831V81.9465H102.643V78.2949H97.1073V81.9465H95.9198ZM109.213 81.9465V74.3599L109.514 74.659H105.885V73.6831H113.729V74.659H110.1L110.401 74.3599V81.9465H109.213ZM119.136 82.0252C118.221 82.0252 117.418 81.8468 116.727 81.49C116.036 81.1227 115.495 80.6243 115.105 79.9948C114.715 79.3547 114.519 78.6254 114.519 77.8069C114.519 76.9885 114.703 76.2644 115.071 75.6348C115.45 75.0052 115.963 74.512 116.61 74.1553C117.268 73.788 118.004 73.6044 118.818 73.6044C119.643 73.6044 120.374 73.7828 121.009 74.1396C121.656 74.4858 122.163 74.9791 122.531 75.6191C122.899 76.2487 123.083 76.978 123.083 77.8069C123.083 77.8594 123.077 77.9171 123.067 77.9801C123.067 78.0326 123.067 78.0902 123.067 78.1532H115.423V77.319H122.431L121.963 77.6495C121.963 77.0514 121.823 76.5215 121.544 76.0598C121.277 75.5876 120.909 75.2203 120.441 74.958C119.972 74.6957 119.431 74.5645 118.818 74.5645C118.216 74.5645 117.675 74.6957 117.195 74.958C116.716 75.2203 116.342 75.5876 116.075 76.0598C115.807 76.532 115.673 77.0724 115.673 77.681V77.8541C115.673 78.4837 115.818 79.0399 116.108 79.5226C116.409 79.9948 116.822 80.3672 117.346 80.6401C117.881 80.9024 118.489 81.0336 119.169 81.0336C119.705 81.0336 120.2 80.9444 120.658 80.766C121.126 80.5876 121.528 80.3148 121.862 79.9475L122.531 80.6716C122.141 81.1123 121.65 81.4481 121.059 81.6789C120.479 81.9097 119.838 82.0252 119.136 82.0252ZM130.579 82.0252C129.82 82.0252 129.134 81.8625 128.521 81.5372C127.909 81.2014 127.418 80.7241 127.05 80.1049C126.692 79.4753 126.514 78.7094 126.514 77.8069C126.514 76.9045 126.692 76.1438 127.05 75.5247C127.407 74.8951 127.892 74.4176 128.505 74.0923C129.118 73.7671 129.809 73.6044 130.579 73.6044C131.415 73.6044 132.162 73.7828 132.82 74.1396C133.489 74.4858 134.013 74.9791 134.392 75.6191C134.771 76.2487 134.961 76.978 134.961 77.8069C134.961 78.6464 134.771 79.3809 134.392 80.0105C134.013 80.6401 133.489 81.1333 132.82 81.49C132.162 81.8468 131.415 82.0252 130.579 82.0252ZM126.046 85V73.6831H127.183V76.17L127.066 77.8227L127.234 79.4911V85H126.046ZM130.495 81.0336C131.12 81.0336 131.677 80.9024 132.168 80.6401C132.659 80.3672 133.048 79.9895 133.338 79.5068C133.629 79.0136 133.773 78.447 133.773 77.8069C133.773 77.1669 133.629 76.6054 133.338 76.1228C133.048 75.6401 132.659 75.2624 132.168 74.9895C131.677 74.7166 131.12 74.5803 130.495 74.5803C129.87 74.5803 129.308 74.7166 128.806 74.9895C128.315 75.2624 127.925 75.6401 127.635 76.1228C127.357 76.6054 127.217 77.1669 127.217 77.8069C127.217 78.447 127.357 79.0136 127.635 79.5068C127.925 79.9895 128.315 80.3672 128.806 80.6401C129.308 80.9024 129.87 81.0336 130.495 81.0336ZM141.627 76.595C142.731 76.6054 143.567 76.8363 144.136 77.2875C144.715 77.7387 145.006 78.3893 145.006 79.2392C145.006 80.1207 144.693 80.7975 144.069 81.2697C143.455 81.7419 142.564 81.9727 141.393 81.9622L137.847 81.9465V73.6831H139.035V76.5635L141.627 76.595ZM141.326 81.1123C142.14 81.1227 142.752 80.9706 143.166 80.6558C143.589 80.3306 143.801 79.8584 143.801 79.2392C143.801 78.6201 143.595 78.1689 143.183 77.8856C142.769 77.5919 142.15 77.4396 141.326 77.4292L139.035 77.3977V81.0808L141.326 81.1123ZM151.369 82.0252C150.455 82.0252 149.652 81.8468 148.96 81.49C148.27 81.1227 147.728 80.6243 147.338 79.9948C146.948 79.3547 146.752 78.6254 146.752 77.8069C146.752 76.9885 146.936 76.2644 147.304 75.6348C147.684 75.0052 148.197 74.512 148.843 74.1553C149.501 73.788 150.237 73.6044 151.051 73.6044C151.876 73.6044 152.606 73.7828 153.242 74.1396C153.889 74.4858 154.396 74.9791 154.764 75.6191C155.132 76.2487 155.316 76.978 155.316 77.8069C155.316 77.8594 155.311 77.9171 155.299 77.9801C155.299 78.0326 155.299 78.0902 155.299 78.1532H147.655V77.319H154.663L154.195 77.6495C154.195 77.0514 154.057 76.5215 153.777 76.0598C153.509 75.5876 153.141 75.2203 152.673 74.958C152.205 74.6957 151.665 74.5645 151.051 74.5645C150.449 74.5645 149.909 74.6957 149.428 74.958C148.949 75.2203 148.575 75.5876 148.308 76.0598C148.04 76.532 147.906 77.0724 147.906 77.681V77.8541C147.906 78.4837 148.052 79.0399 148.341 79.5226C148.642 79.9948 149.056 80.3672 149.579 80.6401C150.114 80.9024 150.722 81.0336 151.402 81.0336C151.937 81.0336 152.434 80.9444 152.891 80.766C153.359 80.5876 153.76 80.3148 154.095 79.9475L154.764 80.6716C154.374 81.1123 153.883 81.4481 153.292 81.6789C152.713 81.9097 152.071 82.0252 151.369 82.0252ZM162.812 82.0252C162.054 82.0252 161.368 81.8625 160.755 81.5372C160.141 81.2014 159.651 80.7241 159.283 80.1049C158.926 79.4753 158.748 78.7094 158.748 77.8069C158.748 76.9045 158.926 76.1438 159.283 75.5247C159.639 74.8951 160.124 74.4176 160.738 74.0923C161.351 73.7671 162.043 73.6044 162.812 73.6044C163.649 73.6044 164.395 73.7828 165.054 74.1396C165.723 74.4858 166.246 74.9791 166.626 75.6191C167.005 76.2487 167.194 76.978 167.194 77.8069C167.194 78.6464 167.005 79.3809 166.626 80.0105C166.246 80.6401 165.723 81.1333 165.054 81.49C164.395 81.8468 163.649 82.0252 162.812 82.0252ZM158.28 85V73.6831H159.417V76.17L159.3 77.8227L159.467 79.4911V85H158.28ZM162.729 81.0336C163.352 81.0336 163.91 80.9024 164.401 80.6401C164.891 80.3672 165.282 79.9895 165.572 79.5068C165.861 79.0136 166.007 78.447 166.007 77.8069C166.007 77.1669 165.861 76.6054 165.572 76.1228C165.282 75.6401 164.891 75.2624 164.401 74.9895C163.91 74.7166 163.352 74.5803 162.729 74.5803C162.104 74.5803 161.541 74.7166 161.039 74.9895C160.548 75.2624 160.158 75.6401 159.869 76.1228C159.589 76.6054 159.451 77.1669 159.451 77.8069C159.451 78.447 159.589 79.0136 159.869 79.5068C160.158 79.9895 160.548 80.3672 161.039 80.6401C161.541 80.9024 162.104 81.0336 162.729 81.0336ZM170.08 81.9465V73.6831H171.267V77.3347H176.803V73.6831H177.991V81.9465H176.803V78.2949H171.267V81.9465H170.08ZM185.314 82.0252C184.466 82.0252 183.703 81.8468 183.023 81.49C182.354 81.1227 181.823 80.6243 181.434 79.9948C181.043 79.3547 180.848 78.6254 180.848 77.8069C180.848 76.978 181.043 76.2487 181.434 75.6191C181.823 74.9895 182.354 74.4963 183.023 74.1396C183.692 73.7828 184.455 73.6044 185.314 73.6044C186.184 73.6044 186.953 73.7828 187.622 74.1396C188.302 74.4963 188.831 74.9895 189.211 75.6191C189.601 76.2487 189.797 76.978 189.797 77.8069C189.797 78.6254 189.601 79.3547 189.211 79.9948C188.831 80.6243 188.302 81.1227 187.622 81.49C186.941 81.8468 186.172 82.0252 185.314 82.0252ZM185.314 81.0336C185.95 81.0336 186.512 80.9024 187.003 80.6401C187.493 80.3672 187.878 79.9895 188.158 79.5068C188.447 79.0136 188.592 78.447 188.592 77.8069C188.592 77.1563 188.447 76.5897 188.158 76.107C187.878 75.6244 187.493 75.2518 187.003 74.9895C186.512 74.7166 185.955 74.5803 185.331 74.5803C184.706 74.5803 184.148 74.7166 183.658 74.9895C183.167 75.2518 182.777 75.6244 182.488 76.107C182.197 76.5897 182.053 77.1563 182.053 77.8069C182.053 78.447 182.197 79.0136 182.488 79.5068C182.777 79.9895 183.167 80.3672 183.658 80.6401C184.148 80.9024 184.7 81.0336 185.314 81.0336ZM192.669 81.9465V73.6831H198.891V74.659H193.555L193.856 74.3757V81.9465H192.669ZM204.146 82.0252C203.298 82.0252 202.534 81.8468 201.855 81.49C201.186 81.1227 200.655 80.6243 200.266 79.9948C199.875 79.3547 199.68 78.6254 199.68 77.8069C199.68 76.978 199.875 76.2487 200.266 75.6191C200.655 74.9895 201.186 74.4963 201.855 74.1396C202.524 73.7828 203.287 73.6044 204.146 73.6044C205.016 73.6044 205.785 73.7828 206.454 74.1396C207.134 74.4963 207.663 74.9895 208.043 75.6191C208.432 76.2487 208.628 76.978 208.628 77.8069C208.628 78.6254 208.432 79.3547 208.043 79.9948C207.663 80.6243 207.134 81.1227 206.454 81.49C205.773 81.8468 205.004 82.0252 204.146 82.0252ZM204.146 81.0336C204.782 81.0336 205.344 80.9024 205.835 80.6401C206.325 80.3672 206.71 79.9895 206.989 79.5068C207.278 79.0136 207.424 78.447 207.424 77.8069C207.424 77.1563 207.278 76.5897 206.989 76.107C206.71 75.6244 206.325 75.2518 205.835 74.9895C205.344 74.7166 204.786 74.5803 204.163 74.5803C203.538 74.5803 202.98 74.7166 202.49 74.9895C201.999 75.2518 201.608 75.6244 201.319 76.107C201.029 76.5897 200.884 77.1563 200.884 77.8069C200.884 78.447 201.029 79.0136 201.319 79.5068C201.608 79.9895 201.999 80.3672 202.49 80.6401C202.98 80.9024 203.532 81.0336 204.146 81.0336ZM216.212 81.9465V73.6831H224.107V81.9465H222.919V74.3599L223.22 74.659H217.099L217.4 74.3599V81.9465H216.212ZM232.35 82.0252C231.591 82.0252 230.906 81.8625 230.293 81.5372C229.679 81.2014 229.189 80.7241 228.821 80.1049C228.464 79.4753 228.286 78.7094 228.286 77.8069C228.286 76.9045 228.464 76.1438 228.821 75.5247C229.177 74.8951 229.662 74.4176 230.276 74.0923C230.889 73.7671 231.581 73.6044 232.35 73.6044C233.186 73.6044 233.933 73.7828 234.591 74.1396C235.26 74.4858 235.784 74.9791 236.163 75.6191C236.542 76.2487 236.732 76.978 236.732 77.8069C236.732 78.6464 236.542 79.3809 236.163 80.0105C235.784 80.6401 235.26 81.1333 234.591 81.49C233.933 81.8468 233.186 82.0252 232.35 82.0252ZM227.817 85V73.6831H228.955V76.17L228.838 77.8227L229.005 79.4911V85H227.817ZM232.266 81.0336C232.89 81.0336 233.448 80.9024 233.939 80.6401C234.429 80.3672 234.819 79.9895 235.11 79.5068C235.399 79.0136 235.545 78.447 235.545 77.8069C235.545 77.1669 235.399 76.6054 235.11 76.1228C234.819 75.6401 234.429 75.2624 233.939 74.9895C233.448 74.7166 232.89 74.5803 232.266 74.5803C231.642 74.5803 231.079 74.7166 230.577 74.9895C230.086 75.2624 229.695 75.6401 229.406 76.1228C229.127 76.6054 228.988 77.1669 228.988 77.8069C228.988 78.447 229.127 79.0136 229.406 79.5068C229.695 79.9895 230.086 80.3672 230.577 80.6401C231.079 80.9024 231.642 81.0336 232.266 81.0336ZM243.38 82.0252C242.467 82.0252 241.664 81.8468 240.972 81.49C240.281 81.1227 239.74 80.6243 239.35 79.9948C238.96 79.3547 238.764 78.6254 238.764 77.8069C238.764 76.9885 238.948 76.2644 239.316 75.6348C239.696 75.0052 240.209 74.512 240.855 74.1553C241.513 73.788 242.249 73.6044 243.063 73.6044C243.888 73.6044 244.618 73.7828 245.254 74.1396C245.901 74.4858 246.408 74.9791 246.776 75.6191C247.144 76.2487 247.328 76.978 247.328 77.8069C247.328 77.8594 247.323 77.9171 247.311 77.9801C247.311 78.0326 247.311 78.0902 247.311 78.1532H239.667V77.319H246.675L246.207 77.6495C246.207 77.0514 246.069 76.5215 245.789 76.0598C245.521 75.5876 245.153 75.2203 244.685 74.958C244.217 74.6957 243.677 74.5645 243.063 74.5645C242.461 74.5645 241.921 74.6957 241.44 74.958C240.961 75.2203 240.587 75.5876 240.32 76.0598C240.052 76.532 239.918 77.0724 239.918 77.681V77.8541C239.918 78.4837 240.064 79.0399 240.353 79.5226C240.654 79.9948 241.068 80.3672 241.591 80.6401C242.126 80.9024 242.734 81.0336 243.414 81.0336C243.949 81.0336 244.446 80.9444 244.902 80.766C245.371 80.5876 245.772 80.3148 246.107 79.9475L246.776 80.6716C246.386 81.1123 245.895 81.4481 245.304 81.6789C244.725 81.9097 244.083 82.0252 243.38 82.0252ZM256.133 81.4113V74.659H251.901L251.801 76.5005C251.779 77.0567 251.74 77.6023 251.684 78.1375C251.639 78.6726 251.556 79.1658 251.433 79.617C251.322 80.0577 251.16 80.4197 250.948 80.703C250.736 80.9759 250.463 81.1333 250.128 81.1752L248.941 80.9706C249.287 80.9811 249.571 80.8657 249.794 80.6243C250.017 80.3725 250.19 80.0315 250.312 79.6013C250.435 79.171 250.525 78.6831 250.58 78.1375C250.636 77.5813 250.68 77.0146 250.713 76.4376L250.831 73.6831H257.32V81.4113H256.133ZM248.573 83.9454V80.9706H258.691V83.9454H257.571V81.9465H249.693V83.9454H248.573ZM261.34 81.9465V73.6831H262.544L266.525 80.0262H266.023L270.071 73.6831H271.175V81.9465H270.088V74.958L270.305 75.0525L266.525 80.9391H265.99L262.176 74.9895L262.427 74.9423V81.9465H261.34ZM278.652 82.0252C277.738 82.0252 276.935 81.8468 276.244 81.49C275.552 81.1227 275.012 80.6243 274.621 79.9948C274.231 79.3547 274.036 78.6254 274.036 77.8069C274.036 76.9885 274.22 76.2644 274.588 75.6348C274.967 75.0052 275.48 74.512 276.127 74.1553C276.785 73.788 277.521 73.6044 278.334 73.6044C279.16 73.6044 279.89 73.7828 280.525 74.1396C281.172 74.4858 281.68 74.9791 282.048 75.6191C282.415 76.2487 282.599 76.978 282.599 77.8069C282.599 77.8594 282.594 77.9171 282.583 77.9801C282.583 78.0326 282.583 78.0902 282.583 78.1532H274.939V77.319H281.947L281.479 77.6495C281.479 77.0514 281.339 76.5215 281.061 76.0598C280.793 75.5876 280.425 75.2203 279.957 74.958C279.489 74.6957 278.947 74.5645 278.334 74.5645C277.732 74.5645 277.191 74.6957 276.712 74.958C276.233 75.2203 275.859 75.5876 275.591 76.0598C275.324 76.532 275.19 77.0724 275.19 77.681V77.8541C275.19 78.4837 275.335 79.0399 275.625 79.5226C275.926 79.9948 276.338 80.3672 276.863 80.6401C277.398 80.9024 278.006 81.0336 278.686 81.0336C279.221 81.0336 279.717 80.9444 280.174 80.766C280.643 80.5876 281.044 80.3148 281.379 79.9475L282.048 80.6716C281.657 81.1123 281.167 81.4481 280.576 81.6789C279.996 81.9097 279.355 82.0252 278.652 82.0252ZM286.843 81.9465V74.3599L287.144 74.659H283.515V73.6831H291.359V74.659H287.729L288.03 74.3599V81.9465H286.843ZM298.863 81.9465V80.1207L298.812 79.8216V76.7681C298.812 76.0651 298.601 75.5247 298.177 75.1469C297.765 74.7691 297.146 74.5803 296.32 74.5803C295.752 74.5803 295.212 74.6694 294.698 74.8478C294.185 75.0263 293.751 75.2624 293.393 75.5561L292.858 74.7219C293.305 74.3652 293.84 74.0923 294.464 73.9035C295.089 73.7041 295.747 73.6044 296.437 73.6044C297.575 73.6044 298.451 73.872 299.063 74.4071C299.688 74.9318 300 75.7346 300 76.8153V81.9465H298.863ZM295.835 82.0252C295.178 82.0252 294.604 81.9255 294.113 81.7261C293.634 81.5162 293.266 81.2329 293.009 80.8762C292.753 80.5089 292.624 80.0892 292.624 79.617C292.624 79.1867 292.73 78.7985 292.942 78.4523C293.165 78.0955 293.522 77.8122 294.012 77.6023C294.514 77.382 295.183 77.2718 296.019 77.2718H299.047V78.106H296.053C295.206 78.106 294.614 78.2476 294.28 78.531C293.957 78.8143 293.795 79.1658 293.795 79.5855C293.795 80.0577 293.991 80.4355 294.38 80.7188C294.771 81.0021 295.317 81.1438 296.019 81.1438C296.688 81.1438 297.263 81.0021 297.742 80.7188C298.233 80.425 298.59 80.0052 298.812 79.4596L299.08 80.2308C298.858 80.7765 298.467 81.212 297.909 81.5372C297.363 81.8625 296.672 82.0252 295.835 82.0252Z" fill="#c7b299" />
</svg>