<svg width="113" height="34" viewBox="0 0 113 34" fill="none" xmlns="http://www.w3.org/2000/svg">
  <mask id="mask0_4001_908" style="mask-type:luminance" maskUnits="userSpaceOnUse" x="0" y="0" width="113" height="34">
    <path d="M112.811 0.752365H0.813477V33.8576H112.811V0.752365Z" fill="white" />
  </mask>
  <g mask="url(#mask0_4001_908)">
    <path d="M57.9072 20.4338C57.9072 20.4338 58.0813 22.4212 59.4018 23.7461C60.723 25.071 62.7042 25.2454 62.7042 25.2454C62.7042 25.2454 62.5301 23.258 61.2096 21.9331C59.871 20.6256 57.9072 20.4338 57.9072 20.4338Z" fill="#333333" />
  </g>
  <mask id="mask1_4001_908" style="mask-type:luminance" maskUnits="userSpaceOnUse" x="0" y="0" width="113" height="34">
    <path d="M112.811 0.752365H0.813477V33.8576H112.811V0.752365Z" fill="white" />
  </mask>
  <g mask="url(#mask1_4001_908)">
    <path d="M9.38168 11.3694C9.38168 11.3694 9.20786 13.3567 7.86964 14.6817C6.54875 16.0066 4.56738 16.1809 4.56738 16.1809C4.56738 16.1809 4.7412 14.1935 6.06209 12.8687C7.40038 11.5437 9.38168 11.3694 9.38168 11.3694Z" fill="#333333" />
  </g>
  <path d="M21.6279 10.4682L11.7105 32.5457L1.79315 10.4682H0.813477L11.1949 33.543H12.209L22.6076 10.4682H21.6279Z" fill="#333333" />
  <mask id="mask2_4001_908" style="mask-type:luminance" maskUnits="userSpaceOnUse" x="0" y="0" width="113" height="34">
    <path d="M112.811 0.752365H0.813477V33.8576H112.811V0.752365Z" fill="white" />
  </mask>
  <g mask="url(#mask2_4001_908)">
    <path d="M28.9173 21.393H50.4338C50.2423 18.1156 49.1473 15.4658 47.114 13.4436C45.1154 11.3865 42.6825 10.358 39.7796 10.358C36.7209 10.358 34.1662 11.404 32.0804 13.4959C29.9948 15.5704 28.952 18.2203 28.9173 21.393ZM39.7796 9.50374C43.1691 9.50374 45.9153 10.724 48.0357 13.1473C50.1735 15.5181 51.251 18.3946 51.251 21.7591V22.2298H28.9173C29.0737 25.4201 30.186 28.0002 32.2369 30.005C34.3228 32.0097 36.895 33.0034 39.9885 33.0034C42.0393 33.0034 43.8812 32.5676 45.515 31.696C47.1488 30.8243 48.3482 29.6563 49.1307 28.1919L49.9298 28.6626C48.9914 30.249 47.6528 31.5217 45.9153 32.463C44.1771 33.4044 42.1959 33.8576 39.9885 33.8576C36.5295 33.8576 33.6796 32.7245 31.4026 30.4408C29.1258 28.157 27.9961 25.2457 27.9961 21.6894C27.9961 18.2203 29.1084 15.3438 31.3158 13.0252C33.5403 10.6718 36.3562 9.50374 39.7796 9.50374Z" fill="#333333" />
  </g>
  <mask id="mask3_4001_908" style="mask-type:luminance" maskUnits="userSpaceOnUse" x="0" y="0" width="113" height="34">
    <path d="M112.811 0.752365H0.813477V33.8576H112.811V0.752365Z" fill="white" />
  </mask>
  <g mask="url(#mask3_4001_908)">
    <path d="M71.0466 9.97406V10.8108H63.6253V28.174C63.6253 30.1963 64.1815 31.5387 65.2765 32.1837C66.3889 32.8287 68.3004 32.9333 71.0466 32.5323V33.3691C68.1271 33.8398 66.0067 33.6654 64.668 32.8461C63.3475 32.0442 62.6869 30.4752 62.6869 28.1567V10.7934H57.0908V9.9566H62.6869V3.68072L63.6253 3.40179V9.9566H71.0466V9.97406Z" fill="#333333" />
  </g>
  <path d="M97.9508 10.4682L88.2926 32.5457L78.651 10.4682H77.6982L87.8083 33.543H88.7935L98.8869 10.4682H97.9508Z" fill="#333333" />
  <mask id="mask4_4001_908" style="mask-type:luminance" maskUnits="userSpaceOnUse" x="0" y="0" width="113" height="34">
    <path d="M112.811 0.752365H0.813477V33.8576H112.811V0.752365Z" fill="white" />
  </mask>
  <g mask="url(#mask4_4001_908)">
    <path d="M109.526 15.3434C108.205 16.6683 108.014 18.6557 108.014 18.6557C108.014 18.6557 109.995 18.4813 111.316 17.1565C112.637 15.8315 112.828 13.8441 112.828 13.8441C112.828 13.8441 110.847 14.0185 109.526 15.3434Z" fill="#333333" />
  </g>
  <mask id="mask5_4001_908" style="mask-type:luminance" maskUnits="userSpaceOnUse" x="-6" y="0" width="113" height="34">
    <path d="M106.379 0.752365H-5.61865V33.8576H106.379V0.752365Z" fill="white" />
  </mask>
  <g mask="url(#mask5_4001_908)">
    <path d="M101.86 2.58321C102.138 2.23455 102.225 1.88589 102.138 1.53722C102.051 1.17113 101.791 0.944503 101.39 0.805039C100.991 0.683008 100.626 0.770174 100.313 1.08397C100.035 1.39776 99.9481 1.74642 100.053 2.11251C100.157 2.47861 100.417 2.7401 100.818 2.87957C101.235 3.01904 101.582 2.91443 101.86 2.58321Z" fill="#333333" />
  </g>
  <path d="M106.757 10.4682V33.543H107.665V19.0309V10.4682H106.757Z" fill="#333333" />
</svg>