<svg width="1050" height="423" viewBox="0 0 1050 423" fill="none" xmlns="http://www.w3.org/2000/svg">
  <mask id="mask0_2049_142" style="mask-type:luminance" maskUnits="userSpaceOnUse" x="73" y="0" width="889" height="264">
    <path d="M961.832 0.0301514H73.2344V263.373H961.832V0.0301514Z" fill="white" />
  </mask>
  <g mask="url(#mask0_2049_142)">
    <path d="M526.221 156.591C526.221 156.591 527.602 172.4 538.079 182.939C548.562 193.478 564.281 194.865 564.281 194.865C564.281 194.865 562.9 179.056 552.423 168.517C541.802 158.116 526.221 156.591 526.221 156.591Z" fill="white" />
  </g>
  <mask id="mask1_2049_142" style="mask-type:luminance" maskUnits="userSpaceOnUse" x="73" y="0" width="889" height="264">
    <path d="M961.832 0.0301514H73.2344V263.373H961.832V0.0301514Z" fill="white" />
  </mask>
  <g mask="url(#mask1_2049_142)">
    <path d="M141.216 84.4855C141.216 84.4855 139.837 100.294 129.22 110.834C118.74 121.373 103.019 122.76 103.019 122.76C103.019 122.76 104.398 106.951 114.878 96.4119C125.497 85.8722 141.216 84.4855 141.216 84.4855Z" fill="white" />
  </g>
  <path d="M238.378 77.3165L159.693 252.938L81.0072 77.3165H73.2344L155.601 260.87H163.647L246.151 77.3165H238.378Z" fill="white" />
  <mask id="mask2_2049_142" style="mask-type:luminance" maskUnits="userSpaceOnUse" x="73" y="0" width="889" height="264">
    <path d="M961.832 0.0301514H73.2344V263.373H961.832V0.0301514Z" fill="white" />
  </mask>
  <g mask="url(#mask2_2049_142)">
    <path d="M296.211 164.221H466.925C465.406 138.15 456.718 117.072 440.586 100.986C424.729 84.6219 405.426 76.4403 382.394 76.4403C358.126 76.4403 337.857 84.7608 321.308 101.402C304.76 117.904 296.487 138.983 296.211 164.221ZM382.394 69.6449C409.287 69.6449 431.075 79.3521 447.899 98.6282C464.86 117.488 473.41 140.369 473.41 167.133V170.878H296.211C297.452 196.255 306.278 216.779 322.549 232.727C339.099 248.674 359.507 256.578 384.052 256.578C400.323 256.578 414.936 253.112 427.899 246.178C440.862 239.244 450.378 229.953 456.586 218.304L462.927 222.049C455.482 234.668 444.861 244.791 431.075 252.279C417.284 259.768 401.565 263.373 384.052 263.373C356.607 263.373 333.996 254.36 315.93 236.193C297.866 218.027 288.903 194.868 288.903 166.578C288.903 138.983 297.728 116.101 315.241 97.6574C332.891 78.9361 355.232 69.6449 382.394 69.6449Z" fill="white" />
  </g>
  <mask id="mask3_2049_142" style="mask-type:luminance" maskUnits="userSpaceOnUse" x="73" y="0" width="889" height="264">
    <path d="M961.832 0.0301514H73.2344V263.373H961.832V0.0301514Z" fill="white" />
  </mask>
  <g mask="url(#mask3_2049_142)">
    <path d="M630.469 73.3862V80.0421H571.588V218.162C571.588 234.249 576.001 244.927 584.689 250.058C593.515 255.189 608.681 256.021 630.469 252.831V259.487C607.306 263.231 590.483 261.845 579.861 255.327C569.384 248.948 564.143 236.467 564.143 218.024V79.9039H519.743V73.2473H564.143V23.3244L571.588 21.1056V73.2473H630.469V73.3862Z" fill="white" />
  </g>
  <path d="M843.931 77.3165L767.302 252.938L690.804 77.3165H683.245L763.459 260.87H771.276L851.358 77.3165H843.931Z" fill="white" />
  <mask id="mask4_2049_142" style="mask-type:luminance" maskUnits="userSpaceOnUse" x="73" y="0" width="889" height="264">
    <path d="M961.832 0.0301514H73.2344V263.373H961.832V0.0301514Z" fill="white" />
  </mask>
  <g mask="url(#mask4_2049_142)">
    <path d="M935.769 116.098C925.292 126.637 923.773 142.446 923.773 142.446C923.773 142.446 939.491 141.059 949.974 130.52C960.451 119.98 961.97 104.172 961.97 104.172C961.97 104.172 946.252 105.559 935.769 116.098Z" fill="white" />
  </g>
  <mask id="mask5_2049_142" style="mask-type:luminance" maskUnits="userSpaceOnUse" x="22" y="0" width="889" height="264">
    <path d="M910.798 0.0301514H22.2002V263.373H910.798V0.0301514Z" fill="#C7B299" />
  </mask>
  <g mask="url(#mask5_2049_142)">
    <path d="M874.948 14.5939C877.152 11.8204 877.842 9.04695 877.152 6.27341C876.461 3.36127 874.396 1.55848 871.22 0.44908C868.05 -0.521641 865.155 0.17174 862.67 2.66788C860.466 5.16402 859.776 7.9375 860.604 10.8497C861.433 13.7619 863.498 15.842 866.675 16.9514C869.983 18.0608 872.739 17.2287 874.948 14.5939Z" fill="white" />
  </g>
  <path d="M913.8 77.3165V260.87H921.005V145.431V77.3165H913.8Z" fill="white" />
  <path d="M90.1985 380.32C90.1985 380.32 90.1324 380.32 90.0002 380.32C89.8681 380.32 89.7359 380.32 89.6037 380.32C89.5046 380.32 89.422 380.32 89.3559 380.32C84.2013 380.289 80.1867 379.196 77.312 377.042C74.4373 374.887 73 371.825 73 367.854C73 363.945 74.4373 360.929 77.312 358.805C80.2197 356.65 84.3004 355.557 89.5542 355.527C89.5872 355.527 89.6533 355.527 89.7524 355.527C89.8846 355.527 90.0002 355.527 90.0994 355.527C90.1985 355.527 90.2646 355.527 90.2976 355.527C95.5844 355.557 99.6981 356.65 102.639 358.805C105.58 360.929 107.05 363.945 107.05 367.854C107.05 371.855 105.563 374.934 102.589 377.088C99.6485 379.243 95.5183 380.32 90.1985 380.32ZM90.1489 377.458C93.0897 377.458 95.5513 377.088 97.5339 376.349C99.5164 375.58 101.02 374.487 102.044 373.071C103.068 371.656 103.581 369.916 103.581 367.854C103.581 365.853 103.068 364.161 102.044 362.775C101.02 361.36 99.5164 360.282 97.5339 359.544C95.5513 358.805 93.0897 358.435 90.1489 358.435C90.1159 358.435 90.0168 358.435 89.8515 358.435C89.7194 358.435 89.6368 358.435 89.6037 358.435C86.729 358.435 84.317 358.82 82.3675 359.59C80.418 360.328 78.9476 361.39 77.9563 362.775C76.9651 364.161 76.4694 365.853 76.4694 367.854C76.4694 369.886 76.9651 371.609 77.9563 373.025C78.9806 374.441 80.4675 375.534 82.417 376.303C84.3665 377.042 86.7621 377.427 89.6037 377.458C89.6698 377.458 89.7689 377.458 89.9011 377.458C90.0333 377.458 90.1159 377.458 90.1489 377.458ZM88.2655 389V345.785H91.6854V389H88.2655ZM131.496 380.043V374.687L131.347 373.81V364.853C131.347 362.791 130.719 361.206 129.464 360.098C128.241 358.99 126.407 358.435 123.962 358.435C122.277 358.435 120.675 358.697 119.155 359.22C117.635 359.744 116.346 360.436 115.289 361.298L113.703 358.851C115.024 357.805 116.61 357.004 118.461 356.45C120.311 355.865 122.261 355.573 124.309 355.573C127.68 355.573 130.273 356.358 132.091 357.928C133.941 359.467 134.866 361.821 134.866 364.992V380.043H131.496ZM122.525 380.274C120.576 380.274 118.874 379.981 117.42 379.397C115.999 378.781 114.909 377.95 114.149 376.903C113.389 375.826 113.009 374.595 113.009 373.21C113.009 371.948 113.323 370.809 113.951 369.793C114.611 368.747 115.669 367.916 117.123 367.3C118.61 366.654 120.592 366.331 123.07 366.331H132.041V368.778H123.169C120.658 368.778 118.907 369.193 117.916 370.024C116.957 370.855 116.478 371.886 116.478 373.118C116.478 374.503 117.057 375.611 118.213 376.442C119.369 377.273 120.989 377.688 123.07 377.688C125.053 377.688 126.754 377.273 128.175 376.442C129.629 375.58 130.686 374.349 131.347 372.748L132.14 375.01C131.479 376.611 130.323 377.889 128.671 378.843C127.052 379.797 125.003 380.274 122.525 380.274ZM156.922 380.32C154.807 380.32 152.924 379.997 151.272 379.35C149.653 378.704 148.265 377.719 147.109 376.396C145.952 375.072 145.077 373.441 144.482 371.502C143.887 369.532 143.59 367.254 143.59 364.668C143.59 362.36 143.821 360.344 144.284 358.62C144.746 356.866 145.39 355.358 146.217 354.095C147.043 352.833 148.001 351.771 149.091 350.91C150.215 350.017 151.421 349.309 152.71 348.786C154.031 348.232 155.386 347.816 156.774 347.539L168.471 345L169.065 348.047L158.062 350.356C157.368 350.51 156.526 350.725 155.535 351.002C154.576 351.279 153.585 351.695 152.561 352.249C151.57 352.803 150.644 353.572 149.785 354.557C148.926 355.542 148.232 356.82 147.704 358.389C147.208 359.928 146.96 361.852 146.96 364.161C146.96 364.653 146.976 365.053 147.01 365.361C147.043 365.638 147.076 365.946 147.109 366.284C147.175 366.592 147.224 367.054 147.258 367.669L145.721 366.469C146.084 364.592 146.828 362.96 147.951 361.575C149.075 360.159 150.479 359.066 152.164 358.297C153.882 357.497 155.782 357.097 157.864 357.097C160.276 357.097 162.424 357.589 164.307 358.574C166.191 359.528 167.661 360.867 168.718 362.591C169.809 364.315 170.354 366.315 170.354 368.593C170.354 370.84 169.792 372.856 168.669 374.641C167.579 376.426 166.025 377.827 164.01 378.843C161.994 379.828 159.632 380.32 156.922 380.32ZM157.319 377.596C159.169 377.596 160.805 377.211 162.226 376.442C163.646 375.641 164.753 374.564 165.546 373.21C166.372 371.855 166.786 370.332 166.786 368.639C166.786 366.977 166.372 365.499 165.546 364.207C164.753 362.914 163.646 361.898 162.226 361.159C160.805 360.39 159.153 360.005 157.269 360.005C155.419 360.005 153.783 360.375 152.363 361.113C150.942 361.821 149.818 362.822 148.992 364.114C148.199 365.407 147.803 366.9 147.803 368.593C147.803 370.286 148.199 371.809 148.992 373.164C149.818 374.518 150.942 375.595 152.363 376.396C153.816 377.196 155.468 377.596 157.319 377.596ZM192.32 380.274C190.073 380.274 188.04 379.797 186.223 378.843C184.406 377.858 182.952 376.457 181.862 374.641C180.804 372.794 180.276 370.548 180.276 367.9C180.276 365.253 180.804 363.022 181.862 361.206C182.919 359.359 184.356 357.958 186.174 357.004C187.991 356.05 190.04 355.573 192.32 355.573C194.798 355.573 197.011 356.096 198.961 357.143C200.944 358.158 202.497 359.605 203.62 361.483C204.743 363.329 205.305 365.469 205.305 367.9C205.305 370.363 204.743 372.517 203.62 374.364C202.497 376.211 200.944 377.658 198.961 378.704C197.011 379.75 194.798 380.274 192.32 380.274ZM178.888 389V355.804H182.258V363.099L181.911 367.946L182.407 372.841V389H178.888ZM192.072 377.365C193.922 377.365 195.574 376.98 197.028 376.211C198.482 375.411 199.638 374.302 200.497 372.887C201.357 371.44 201.786 369.778 201.786 367.9C201.786 366.023 201.357 364.376 200.497 362.96C199.638 361.544 198.482 360.436 197.028 359.636C195.574 358.835 193.922 358.435 192.072 358.435C190.221 358.435 188.553 358.835 187.066 359.636C185.612 360.436 184.456 361.544 183.596 362.96C182.77 364.376 182.357 366.023 182.357 367.9C182.357 369.778 182.77 371.44 183.596 372.887C184.456 374.302 185.612 375.411 187.066 376.211C188.553 376.98 190.221 377.365 192.072 377.365ZM213.857 380.043V355.804H217.376V375.057L234.773 355.804H237.895V380.043H234.376V360.744L217.029 380.043H213.857ZM268.053 380.043L257.348 368.039L260.272 366.423L272.217 380.043H268.053ZM248.971 380.043V355.804H252.49V380.043H248.971ZM251.4 369.239V366.423H259.776V369.239H251.4ZM260.569 368.27L257.298 367.808L267.657 355.804H271.473L260.569 368.27ZM294.436 380.043V374.687L294.287 373.81V364.853C294.287 362.791 293.659 361.206 292.403 360.098C291.181 358.99 289.347 358.435 286.902 358.435C285.217 358.435 283.614 358.697 282.094 359.22C280.574 359.744 279.285 360.436 278.228 361.298L276.642 358.851C277.964 357.805 279.55 357.004 281.4 356.45C283.251 355.865 285.2 355.573 287.249 355.573C290.619 355.573 293.213 356.358 295.03 357.928C296.88 359.467 297.806 361.821 297.806 364.992V380.043H294.436ZM285.465 380.274C283.515 380.274 281.813 379.981 280.36 379.397C278.939 378.781 277.848 377.95 277.088 376.903C276.328 375.826 275.948 374.595 275.948 373.21C275.948 371.948 276.262 370.809 276.89 369.793C277.551 368.747 278.608 367.916 280.062 367.3C281.549 366.654 283.532 366.331 286.01 366.331H294.981V368.778H286.109C283.597 368.778 281.846 369.193 280.855 370.024C279.897 370.855 279.418 371.886 279.418 373.118C279.418 374.503 279.996 375.611 281.153 376.442C282.309 377.273 283.928 377.688 286.01 377.688C287.992 377.688 289.694 377.273 291.115 376.442C292.568 375.58 293.626 374.349 294.287 372.748L295.08 375.01C294.419 376.611 293.262 377.889 291.61 378.843C289.991 379.797 287.943 380.274 285.465 380.274ZM322.128 380.043V355.804H325.647V375.057L343.043 355.804H346.166V380.043H342.647V360.744L325.3 380.043H322.128ZM357.242 380.043V355.804H360.761V366.515H377.167V355.804H380.686V380.043H377.167V369.332H360.761V380.043H357.242ZM396.636 380.043V357.789L397.528 358.666H386.772V355.804H410.018V358.666H399.262L400.155 357.789V380.043H396.636ZM426.04 380.274C423.329 380.274 420.95 379.75 418.902 378.704C416.853 377.627 415.25 376.165 414.094 374.318C412.937 372.44 412.359 370.301 412.359 367.9C412.359 365.499 412.904 363.376 413.995 361.529C415.118 359.682 416.638 358.235 418.555 357.189C420.504 356.111 422.685 355.573 425.098 355.573C427.541 355.573 429.707 356.096 431.591 357.143C433.506 358.158 435.011 359.605 436.101 361.483C437.191 363.329 437.737 365.469 437.737 367.9C437.737 368.054 437.719 368.223 437.687 368.408C437.687 368.562 437.687 368.731 437.687 368.916H415.036V366.469H435.804L434.416 367.439C434.416 365.684 434.002 364.13 433.177 362.775C432.384 361.39 431.293 360.313 429.906 359.544C428.518 358.774 426.914 358.389 425.098 358.389C423.313 358.389 421.71 358.774 420.289 359.544C418.868 360.313 417.762 361.39 416.969 362.775C416.176 364.161 415.779 365.746 415.779 367.531V368.039C415.779 369.886 416.208 371.517 417.068 372.933C417.96 374.318 419.182 375.411 420.735 376.211C422.321 376.98 424.122 377.365 426.139 377.365C427.725 377.365 429.194 377.104 430.55 376.58C431.938 376.057 433.127 375.257 434.119 374.179L436.101 376.303C434.943 377.596 433.488 378.581 431.739 379.258C430.019 379.935 428.121 380.274 426.04 380.274ZM459.948 380.274C457.7 380.274 455.668 379.797 453.852 378.843C452.036 377.858 450.581 376.457 449.49 374.641C448.432 372.794 447.904 370.548 447.904 367.9C447.904 365.253 448.432 363.022 449.49 361.206C450.549 359.359 451.986 357.958 453.802 357.004C455.618 356.05 457.668 355.573 459.948 355.573C462.426 355.573 464.639 356.096 466.59 357.143C468.572 358.158 470.126 359.605 471.249 361.483C472.371 363.329 472.934 365.469 472.934 367.9C472.934 370.363 472.371 372.517 471.249 374.364C470.126 376.211 468.572 377.658 466.59 378.704C464.639 379.75 462.426 380.274 459.948 380.274ZM446.516 389V355.804H449.887V363.099L449.54 367.946L450.035 372.841V389H446.516ZM459.7 377.365C461.552 377.365 463.202 376.98 464.657 376.211C466.112 375.411 467.266 374.302 468.126 372.887C468.986 371.44 469.415 369.778 469.415 367.9C469.415 366.023 468.986 364.376 468.126 362.96C467.266 361.544 466.112 360.436 464.657 359.636C463.202 358.835 461.552 358.435 459.7 358.435C457.849 358.435 456.181 358.835 454.694 359.636C453.239 360.436 452.085 361.544 451.225 362.96C450.4 364.376 449.986 366.023 449.986 367.9C449.986 369.778 450.4 371.44 451.225 372.887C452.085 374.302 453.239 375.411 454.694 376.211C456.181 376.98 457.849 377.365 459.7 377.365ZM492.688 364.345C495.959 364.376 498.438 365.053 500.123 366.377C501.84 367.7 502.7 369.609 502.7 372.102C502.7 374.687 501.772 376.673 499.924 378.058C498.105 379.443 495.464 380.12 491.994 380.089L481.487 380.043V355.804H485.006V364.253L492.688 364.345ZM491.796 377.596C494.207 377.627 496.023 377.18 497.248 376.257C498.501 375.303 499.131 373.918 499.131 372.102C499.131 370.286 498.519 368.962 497.298 368.131C496.073 367.269 494.239 366.823 491.796 366.792L485.006 366.7V377.504L491.796 377.596ZM521.555 380.274C518.847 380.274 516.468 379.75 514.418 378.704C512.372 377.627 510.768 376.165 509.611 374.318C508.456 372.44 507.876 370.301 507.876 367.9C507.876 365.499 508.421 363.376 509.511 361.529C510.637 359.682 512.156 358.235 514.071 357.189C516.022 356.111 518.203 355.573 520.614 355.573C523.06 355.573 525.223 356.096 527.106 357.143C529.025 358.158 530.526 359.605 531.617 361.483C532.707 363.329 533.252 365.469 533.252 367.9C533.252 368.054 533.238 368.223 533.203 368.408C533.203 368.562 533.203 368.731 533.203 368.916H510.552V366.469H531.319L529.932 367.439C529.932 365.684 529.521 364.13 528.692 362.775C527.899 361.39 526.809 360.313 525.421 359.544C524.034 358.774 522.433 358.389 520.614 358.389C518.829 358.389 517.229 358.774 515.806 359.544C514.386 360.313 513.278 361.39 512.485 362.775C511.692 364.161 511.296 365.746 511.296 367.531V368.039C511.296 369.886 511.728 371.517 512.584 372.933C513.477 374.318 514.701 375.411 516.252 376.211C517.838 376.98 519.64 377.365 521.654 377.365C523.241 377.365 524.713 377.104 526.066 376.58C527.453 376.057 528.643 375.257 529.634 374.179L531.617 376.303C530.463 377.596 529.008 378.581 527.255 379.258C525.538 379.935 523.637 380.274 521.555 380.274ZM555.467 380.274C553.219 380.274 551.187 379.797 549.371 378.843C547.551 377.858 546.1 376.457 545.009 374.641C543.951 372.794 543.423 370.548 543.423 367.9C543.423 365.253 543.951 363.022 545.009 361.206C546.064 359.359 547.502 357.958 549.321 357.004C551.138 356.05 553.187 355.573 555.467 355.573C557.945 355.573 560.158 356.096 562.109 357.143C564.091 358.158 565.642 359.605 566.768 361.483C567.89 363.329 568.453 365.469 568.453 367.9C568.453 370.363 567.89 372.517 566.768 374.364C565.642 376.211 564.091 377.658 562.109 378.704C560.158 379.75 557.945 380.274 555.467 380.274ZM542.036 389V355.804H545.406V363.099L545.059 367.946L545.555 372.841V389H542.036ZM555.219 377.365C557.067 377.365 558.721 376.98 560.176 376.211C561.627 375.411 562.785 374.302 563.645 372.887C564.502 371.44 564.934 369.778 564.934 367.9C564.934 366.023 564.502 364.376 563.645 362.96C562.785 361.544 561.627 360.436 560.176 359.636C558.721 358.835 557.067 358.435 555.219 358.435C553.368 358.435 551.7 358.835 550.214 359.636C548.759 360.436 547.601 361.544 546.744 362.96C545.916 364.376 545.505 366.023 545.505 367.9C545.505 369.778 545.916 371.44 546.744 372.887C547.601 374.302 548.759 375.411 550.214 376.211C551.7 376.98 553.368 377.365 555.219 377.365ZM577.003 380.043V355.804H580.522V366.515H596.927V355.804H600.446V380.043H596.927V369.332H580.522V380.043H577.003ZM622.148 380.274C619.634 380.274 617.372 379.75 615.357 378.704C613.375 377.627 611.803 376.165 610.649 374.318C609.491 372.44 608.914 370.301 608.914 367.9C608.914 365.469 609.491 363.329 610.649 361.483C611.803 359.636 613.375 358.189 615.357 357.143C617.34 356.096 619.602 355.573 622.148 355.573C624.725 355.573 627.005 356.096 628.987 357.143C631.002 358.189 632.57 359.636 633.696 361.483C634.85 363.329 635.431 365.469 635.431 367.9C635.431 370.301 634.85 372.44 633.696 374.318C632.57 376.165 631.002 377.627 628.987 378.704C626.969 379.75 624.69 380.274 622.148 380.274ZM622.148 377.365C624.031 377.365 625.699 376.98 627.154 376.211C628.605 375.411 629.745 374.302 630.573 372.887C631.43 371.44 631.862 369.778 631.862 367.9C631.862 365.992 631.43 364.33 630.573 362.914C629.745 361.498 628.605 360.405 627.154 359.636C625.699 358.835 624.045 358.435 622.197 358.435C620.346 358.435 618.692 358.835 617.241 359.636C615.786 360.405 614.628 361.498 613.771 362.914C612.911 364.33 612.483 365.992 612.483 367.9C612.483 369.778 612.911 371.44 613.771 372.887C614.628 374.302 615.786 375.411 617.241 376.211C618.692 376.98 620.328 377.365 622.148 377.365ZM643.941 380.043V355.804H662.379V358.666H646.568L647.46 357.835V380.043H643.941ZM677.952 380.274C675.439 380.274 673.177 379.75 671.162 378.704C669.18 377.627 667.608 376.165 666.454 374.318C665.296 372.44 664.719 370.301 664.719 367.9C664.719 365.469 665.296 363.329 666.454 361.483C667.608 359.636 669.18 358.189 671.162 357.143C673.145 356.096 675.407 355.573 677.952 355.573C680.53 355.573 682.81 356.096 684.792 357.143C686.807 358.189 688.375 359.636 689.501 361.483C690.655 363.329 691.235 365.469 691.235 367.9C691.235 370.301 690.655 372.44 689.501 374.318C688.375 376.165 686.807 377.627 684.792 378.704C682.774 379.75 680.494 380.274 677.952 380.274ZM677.952 377.365C679.836 377.365 681.503 376.98 682.958 376.211C684.41 375.411 685.55 374.302 686.378 372.887C687.235 371.44 687.667 369.778 687.667 367.9C687.667 365.992 687.235 364.33 686.378 362.914C685.55 361.498 684.41 360.405 682.958 359.636C681.503 358.835 679.85 358.435 678.002 358.435C676.15 358.435 674.497 358.835 673.046 359.636C671.591 360.405 670.433 361.498 669.576 362.914C668.716 364.33 668.288 365.992 668.288 367.9C668.288 369.778 668.716 371.44 669.576 372.887C670.433 374.302 671.591 375.411 673.046 376.211C674.497 376.98 676.133 377.365 677.952 377.365ZM713.709 380.043V355.804H737.103V380.043H733.584V357.789L734.476 358.666H716.336L717.228 357.789V380.043H713.709ZM761.53 380.274C759.282 380.274 757.25 379.797 755.434 378.843C753.614 377.858 752.163 376.457 751.073 374.641C750.014 372.794 749.487 370.548 749.487 367.9C749.487 365.253 750.014 363.022 751.073 361.206C752.128 359.359 753.565 357.958 755.385 357.004C757.201 356.05 759.25 355.573 761.53 355.573C764.009 355.573 766.221 356.096 768.172 357.143C770.154 358.158 771.705 359.605 772.831 361.483C773.953 363.329 774.516 365.469 774.516 367.9C774.516 370.363 773.953 372.517 772.831 374.364C771.705 376.211 770.154 377.658 768.172 378.704C766.221 379.75 764.009 380.274 761.53 380.274ZM748.099 389V355.804H751.469V363.099L751.122 367.946L751.618 372.841V389H748.099ZM761.283 377.365C763.131 377.365 764.784 376.98 766.239 376.211C767.69 375.411 768.848 374.302 769.708 372.887C770.565 371.44 770.997 369.778 770.997 367.9C770.997 366.023 770.565 364.376 769.708 362.96C768.848 361.544 767.69 360.436 766.239 359.636C764.784 358.835 763.131 358.435 761.283 358.435C759.431 358.435 757.764 358.835 756.277 359.636C754.822 360.436 753.664 361.544 752.807 362.96C751.979 364.376 751.568 366.023 751.568 367.9C751.568 369.778 751.979 371.44 752.807 372.887C753.664 374.302 754.822 375.411 756.277 376.211C757.764 376.98 759.431 377.365 761.283 377.365ZM794.217 380.274C791.509 380.274 789.13 379.75 787.08 378.704C785.034 377.627 783.43 376.165 782.273 374.318C781.119 372.44 780.538 370.301 780.538 367.9C780.538 365.499 781.083 363.376 782.174 361.529C783.299 359.682 784.818 358.235 786.733 357.189C788.684 356.111 790.865 355.573 793.276 355.573C795.722 355.573 797.885 356.096 799.769 357.143C801.687 358.158 803.188 359.605 804.279 361.483C805.369 363.329 805.914 365.469 805.914 367.9C805.914 368.054 805.9 368.223 805.865 368.408C805.865 368.562 805.865 368.731 805.865 368.916H783.214V366.469H803.981L802.594 367.439C802.594 365.684 802.183 364.13 801.355 362.775C800.562 361.39 799.471 360.313 798.083 359.544C796.696 358.774 795.095 358.389 793.276 358.389C791.491 358.389 789.891 358.774 788.468 359.544C787.048 360.313 785.94 361.39 785.147 362.775C784.354 364.161 783.958 365.746 783.958 367.531V368.039C783.958 369.886 784.39 371.517 785.246 372.933C786.139 374.318 787.364 375.411 788.914 376.211C790.5 376.98 792.302 377.365 794.317 377.365C795.903 377.365 797.375 377.104 798.728 376.58C800.115 376.057 801.305 375.257 802.296 374.179L804.279 376.303C803.125 377.596 801.67 378.581 799.917 379.258C798.2 379.935 796.299 380.274 794.217 380.274ZM832.006 378.473V358.666H819.466L819.169 364.068C819.105 365.7 818.988 367.3 818.822 368.87C818.691 370.44 818.443 371.886 818.079 373.21C817.749 374.503 817.271 375.565 816.641 376.396C816.015 377.196 815.204 377.658 814.213 377.781L810.694 377.18C811.72 377.211 812.563 376.873 813.221 376.165C813.883 375.426 814.397 374.426 814.758 373.164C815.122 371.902 815.388 370.47 815.551 368.87C815.717 367.238 815.848 365.576 815.947 363.884L816.294 355.804H835.525V378.473H832.006ZM809.603 385.907V377.18H839.589V385.907H836.268V380.043H812.924V385.907H809.603ZM847.438 380.043V355.804H851.006L862.802 374.41H861.316L873.31 355.804H876.581V380.043H873.359V359.544L874.004 359.821L862.802 377.088H861.216L849.916 359.636L850.659 359.497V380.043H847.438ZM898.739 380.274C896.031 380.274 893.652 379.75 891.602 378.704C889.552 377.627 887.952 376.165 886.795 374.318C885.637 372.44 885.06 370.301 885.06 367.9C885.06 365.499 885.605 363.376 886.696 361.529C887.818 359.682 889.34 358.235 891.255 357.189C893.206 356.111 895.387 355.573 897.798 355.573C900.244 355.573 902.407 356.096 904.291 357.143C906.206 358.158 907.71 359.605 908.801 361.483C909.891 363.329 910.436 365.469 910.436 367.9C910.436 368.054 910.419 368.223 910.387 368.408C910.387 368.562 910.387 368.731 910.387 368.916H887.736V366.469H908.503L907.116 367.439C907.116 365.684 906.701 364.13 905.877 362.775C905.083 361.39 903.993 360.313 902.605 359.544C901.218 358.774 899.614 358.389 897.798 358.389C896.013 358.389 894.41 358.774 892.99 359.544C891.57 360.313 890.462 361.39 889.669 362.775C888.876 364.161 888.48 365.746 888.48 367.531V368.039C888.48 369.886 888.908 371.517 889.768 372.933C890.661 374.318 891.882 375.411 893.436 376.211C895.022 376.98 896.824 377.365 898.839 377.365C900.425 377.365 901.894 377.104 903.25 376.58C904.638 376.057 905.827 375.257 906.818 374.179L908.801 376.303C907.643 377.596 906.192 378.581 904.439 379.258C902.722 379.935 900.821 380.274 898.739 380.274ZM923.011 380.043V357.789L923.903 358.666H913.148V355.804H936.393V358.666H925.638L926.53 357.789V380.043H923.011ZM958.63 380.043V374.687L958.481 373.81V364.853C958.481 362.791 957.854 361.206 956.598 360.098C955.376 358.99 953.542 358.435 951.096 358.435C949.411 358.435 947.811 358.697 946.288 359.22C944.77 359.744 943.481 360.436 942.422 361.298L940.836 358.851C942.16 357.805 943.746 357.004 945.594 356.45C947.446 355.865 949.397 355.573 951.443 355.573C954.813 355.573 957.408 356.358 959.224 357.928C961.076 359.467 962 361.821 962 364.992V380.043H958.63ZM949.659 380.274C947.712 380.274 946.009 379.981 944.554 379.397C943.134 378.781 942.044 377.95 941.282 376.903C940.525 375.826 940.143 374.595 940.143 373.21C940.143 371.948 940.458 370.809 941.084 369.793C941.746 368.747 942.805 367.916 944.256 367.3C945.743 366.654 947.726 366.331 950.204 366.331H959.175V368.778H950.303C947.793 368.778 946.041 369.193 945.049 370.024C944.093 370.855 943.612 371.886 943.612 373.118C943.612 374.503 944.193 375.611 945.347 376.442C946.504 377.273 948.122 377.688 950.204 377.688C952.186 377.688 953.889 377.273 955.309 376.442C956.764 375.58 957.823 374.349 958.481 372.748L959.274 375.01C958.616 376.611 957.458 377.889 955.805 378.843C954.187 379.797 952.137 380.274 949.659 380.274Z" fill="white" />
</svg>