<svg width="46" height="48" viewBox="0 0 46 48" fill="none" xmlns="http://www.w3.org/2000/svg">
  <path d="M13.6458 25.307H15.4307C17.1671 25.307 18.2665 26.2876 18.2799 27.6419C18.3014 29.0351 17.1322 30.0262 15.3608 30.0262C13.7533 30.0158 12.5733 29.183 12.49 28.0648H9.56006C9.6407 30.4361 11.6863 32.4442 15.3473 32.4442C18.6804 32.4442 21.4894 30.7319 21.4545 27.7794C21.4195 25.307 19.4465 24.1992 17.9816 24.0642V23.9034C19.1643 23.7218 21.0056 22.5362 20.9599 20.3361C20.9249 17.9856 18.8095 16.2629 15.4414 16.2758C11.9201 16.2888 9.94982 18.1802 9.86649 20.6085H12.8314C12.8905 19.5941 13.8609 18.6601 15.3473 18.6601C16.7773 18.6601 17.8418 19.5162 17.8418 20.7694C17.8525 22.0121 16.8123 22.9357 15.3473 22.9357H13.6485L13.6458 25.307ZM23.3387 16.5716V32.1354H29.2228C34.0881 32.1354 36.4401 29.2634 36.4401 24.3133C36.4401 19.3995 34.1257 16.5716 29.2228 16.5716H23.3387ZM26.5294 19.0804H28.7981C31.7871 19.0804 33.1553 20.8602 33.1553 24.373C33.1553 27.8832 31.7979 29.6137 28.7981 29.6137H26.5294V19.0804Z" fill="#C7B299" />
  <path d="M38.75 11.56C39.4462 11.56 40.1139 11.8297 40.6061 12.3098C41.0985 12.7899 41.375 13.441 41.375 14.12V34.6C41.375 35.2789 41.0985 35.9301 40.6061 36.4102C40.1139 36.8903 39.4462 37.16 38.75 37.16H7.25C6.55381 37.16 5.88613 36.8903 5.39384 36.4102C4.90156 35.9301 4.625 35.2789 4.625 34.6V14.12C4.625 13.441 4.90156 12.7899 5.39384 12.3098C5.88613 11.8297 6.55381 11.56 7.25 11.56H38.75ZM7.25 9C5.85762 9 4.52226 9.53943 3.53769 10.4996C2.55312 11.4598 2 12.7621 2 14.12V34.6C2 35.9579 2.55312 37.2602 3.53769 38.2204C4.52226 39.1805 5.85762 39.72 7.25 39.72H38.75C40.1424 39.72 41.4777 39.1805 42.4623 38.2204C43.4469 37.2602 44 35.9579 44 34.6V14.12C44 12.7621 43.4469 11.4598 42.4623 10.4996C41.4777 9.53943 40.1424 9 38.75 9H7.25Z" fill="#C7B299" />
</svg>