<svg width="24" height="24" viewBox="0 0 24 24" fill="none" xmlns="http://www.w3.org/2000/svg">
  <path d="M3.62065 11.0245H2.04905C1.75625 11.0407 1.48175 11.1721 1.28547 11.39C1.08918 11.6079 0.987036 11.8946 1.00132 12.1875V15.1002C0.987036 15.3931 1.08918 15.6797 1.28547 15.8976C1.48175 16.1155 1.75625 16.2469 2.04905 16.2632H3.62065V9.10191C3.62065 5.26197 7.49202 1.07104 12.2644 1.07104C17.0368 1.07104 20.9082 5.26197 20.9082 9.10191V13.12" stroke="white" stroke-width="0.5" stroke-miterlimit="10" />
  <path d="M20.9082 11.0247H21.9559C22.2487 11.0409 22.5232 11.1723 22.7195 11.3902C22.9158 11.6081 23.0179 11.8947 23.0037 12.1876V15.1003C23.0179 15.3932 22.9158 15.6799 22.7195 15.8978C22.5232 16.1157 22.2487 16.2471 21.9559 16.2633H20.9082" stroke="white" stroke-width="0.5" stroke-miterlimit="10" />
  <path d="M18.8127 13.1199V14.6915C18.8127 16.5826 17.8383 19.0186 16.1934 20.2549" stroke="white" stroke-width="0.5" stroke-miterlimit="10" />
  <path d="M8.85938 4.73804C8.85938 8.4051 16.1621 13.1199 19.8606 13.1199" stroke="white" stroke-width="0.5" stroke-miterlimit="10" />
  <path d="M9.38288 6.8335C7.81128 7.48833 5.71582 10.401 5.71582 12.596V14.6915C5.7821 16.0254 6.21138 17.3159 6.95733 18.4238C7.70328 19.5316 8.73759 20.4148 9.94866 20.9779" stroke="white" stroke-width="0.5" stroke-miterlimit="10" />
  <path d="M14.6217 22.5494C14.6217 22.8273 14.5113 23.0938 14.3148 23.2903C14.1183 23.4868 13.8518 23.5972 13.5739 23.5972H12.0023C11.7244 23.5972 11.458 23.4868 11.2615 23.2903C11.065 23.0938 10.9546 22.8273 10.9546 22.5494C10.9546 22.2716 11.065 22.0051 11.2615 21.8086C11.458 21.6121 11.7244 21.5017 12.0023 21.5017H13.5739C13.8518 21.5017 14.1183 21.6121 14.3148 21.8086C14.5113 22.0051 14.6217 22.2716 14.6217 22.5494Z" stroke="white" stroke-width="0.5" stroke-miterlimit="10" />
  <path d="M14.0981 22.5496H14.7163C16.3585 22.5496 17.9335 21.8973 19.0948 20.736C20.256 19.5748 20.9084 17.9998 20.9084 16.3575V14.6917" stroke="white" stroke-width="0.5" stroke-miterlimit="10" />
</svg>