<svg width="14" height="15" viewBox="0 0 14 15" fill="none" xmlns="http://www.w3.org/2000/svg">
  <path d="M12.0027 5.25342C12.1574 5.0678 12.1323 4.79193 11.9467 4.63724C11.7611 4.48256 11.4852 4.50764 11.3305 4.69326L8.18594 8.46673C7.55428 9.22472 7.10994 9.75629 6.72453 10.1043C6.34811 10.4442 6.08833 10.5523 5.83326 10.5523C5.57819 10.5523 5.31842 10.4442 4.942 10.1043C4.55659 9.75628 4.11224 9.22471 3.48059 8.46673L2.66936 7.49326C2.51468 7.30764 2.2388 7.28256 2.05318 7.43724C1.86756 7.59193 1.84248 7.8678 1.99717 8.05342L2.83091 9.05391C3.43481 9.77862 3.91845 10.359 4.35557 10.7537C4.80711 11.1615 5.26868 11.4273 5.83326 11.4273C6.39785 11.4273 6.85942 11.1615 7.31095 10.7537C7.74808 10.359 8.2317 9.77863 8.8356 9.05393L12.0027 5.25342Z" fill="#C7B299" />
</svg>