<svg width="39" height="73" viewBox="0 0 39 73" fill="none" xmlns="http://www.w3.org/2000/svg">
  <path d="M32 65C11.4358 57.0473 -19.6613 33.1136 20.464 1" stroke="url(#paint0_linear_2140_1493)" />
  <path d="M26.3827 68.73L25.6166 69.3727L24.3311 67.8405L25.0973 67.1978L26.3827 68.73ZM31.0488 57.5127L31.2761 56.5389L33.2237 56.9935L32.9964 57.9673L31.0488 57.5127ZM25.0973 67.1978C27.7116 65.0046 30.1289 64.4924 31.9482 64.5865C32.8448 64.6329 33.573 64.8251 34.0846 65.01C34.3406 65.1026 34.5436 65.1939 34.6881 65.2652C34.7604 65.301 34.8182 65.3318 34.8608 65.3555C34.8821 65.3674 34.8997 65.3774 34.9134 65.3854C34.9202 65.3894 34.9261 65.3929 34.931 65.3959C34.9335 65.3974 34.9357 65.3987 34.9376 65.3999L34.9404 65.4016L34.9417 65.4023C34.9417 65.4023 34.9428 65.4031 34.4193 66.255C33.8957 67.107 33.8968 67.1077 33.8968 67.1077L33.8978 67.1083L33.8995 67.1094L33.9019 67.1108L33.9029 67.1114C33.9029 67.1114 33.8972 67.1081 33.8892 67.1037C33.8734 67.0948 33.8441 67.079 33.802 67.0583C33.7179 67.0167 33.5836 66.9556 33.4044 66.8908C33.0457 66.7611 32.5126 66.6184 31.845 66.5838C30.536 66.5161 28.6137 66.8584 26.3827 68.73L25.0973 67.1978ZM34.4193 66.255C33.8957 67.107 33.8946 67.1063 33.8946 67.1063L33.8933 67.1056L33.8906 67.1039C33.8886 67.1026 33.8864 67.1013 33.884 67.0997C33.8791 67.0967 33.8734 67.093 33.8667 67.0887C33.8534 67.0801 33.8364 67.069 33.8162 67.0554C33.7758 67.028 33.7222 66.9904 33.6577 66.942C33.5288 66.8454 33.3556 66.7055 33.1574 66.5189C32.7612 66.1462 32.2607 65.5833 31.8143 64.8044C30.9084 63.2239 30.2733 60.8359 31.0488 57.5127L32.9964 57.9673C32.3346 60.8031 32.8978 62.6728 33.5495 63.8099C33.882 64.3899 34.2501 64.801 34.528 65.0624C34.6667 65.193 34.7818 65.2852 34.857 65.3415C34.8945 65.3696 34.9218 65.3886 34.9369 65.3988C34.9444 65.4039 34.9499 65.4075 34.9499 65.4075L34.949 65.4069L34.9466 65.4054L34.9449 65.4043L34.9439 65.4037C34.9439 65.4037 34.9428 65.4031 34.4193 66.255Z" fill="white" />
  <defs>
    <linearGradient id="paint0_linear_2140_1493" x1="30" y1="65" x2="21" y2="-2.5" gradientUnits="userSpaceOnUse">
      <stop stop-color="white" />
      <stop offset="1" stop-color="white" stop-opacity="0" />
    </linearGradient>
  </defs>
</svg>