<svg width="30" height="30" viewBox="0 0 30 30" fill="none" xmlns="http://www.w3.org/2000/svg">
  <rect x="0.5" y="0.5" width="29" height="29" rx="4.5" stroke="white" />
  <path d="M13.528 9.46731C13.2338 9.17573 12.7589 9.17784 12.4673 9.47204C12.1757 9.76624 12.1778 10.2411 12.472 10.5327L14.235 12.28C14.9505 12.9891 15.4413 13.4772 15.7734 13.8907C16.096 14.2924 16.2067 14.5504 16.2361 14.7815C16.2546 14.9266 16.2546 15.0734 16.2361 15.2185C16.2067 15.4496 16.096 15.7076 15.7734 16.1093C15.4413 16.5228 14.9505 17.0109 14.235 17.72L12.472 19.4673C12.1778 19.7589 12.1757 20.2338 12.4673 20.528C12.7589 20.8222 13.2338 20.8243 13.528 20.5327L15.3227 18.7539C15.9987 18.084 16.5511 17.5364 16.9429 17.0485C17.3504 16.5412 17.6453 16.0263 17.7241 15.4082C17.7586 15.1371 17.7586 14.8629 17.7241 14.5918C17.6453 13.9737 17.3504 13.4588 16.9429 12.9515C16.5511 12.4636 15.9987 11.916 15.3227 11.2461L13.528 9.46731Z" fill="white" />
  <circle cx="10" cy="15" r="1" fill="white" />
  <circle cx="13" cy="15" r="1" fill="white" />
  <circle cx="7" cy="15" r="1" fill="white" />
  <circle cx="4" cy="15" r="1" fill="white" />
</svg>