<svg width="28" height="28" viewBox="0 0 28 28" fill="none" xmlns="http://www.w3.org/2000/svg">
  <path d="M5 8.6V19.85C5 21.114 5 21.746 5.30335 22.2C5.43468 22.3965 5.60343 22.5653 5.79997 22.6966C6.25398 23 6.88599 23 8.15 23C9.41401 23 10.046 23 10.5 22.6966C10.6966 22.5653 10.8653 22.3965 10.9966 22.2C11.3 21.746 11.3 21.114 11.3 19.85V13.1C11.3 12.2515 11.3 11.8272 11.5636 11.5636C11.8272 11.3 12.2515 11.3 13.1 11.3H19.85C21.114 11.3 21.746 11.3 22.2 10.9966C22.3965 10.8653 22.5653 10.6966 22.6966 10.5C23 10.046 23 9.41401 23 8.15C23 6.88599 23 6.25398 22.6966 5.79997C22.5653 5.60343 22.3965 5.43468 22.2 5.30335C21.746 5 21.114 5 19.85 5H8.6C6.90294 5 6.05441 5 5.52721 5.52721C5 6.05441 5 6.90294 5 8.6Z" stroke="black" stroke-linecap="round" />
  <path d="M13.6667 5V7M19 5V7M11 5V8M16.3333 5V8" stroke="black" stroke-linecap="round" />
  <path d="M5 13.6667H7M5 19H7M5 16.3333H8M5 11H8" stroke="black" stroke-linecap="round" />
</svg>