<svg width="40" height="41" viewBox="0 0 40 41" fill="none" xmlns="http://www.w3.org/2000/svg">
<path fill-rule="evenodd" clip-rule="evenodd" d="M34.4942 20.3854C34.4942 26.6693 30.3337 31.9956 24.5606 33.8744C23.1275 34.3395 21.591 34.5949 19.9998 34.5949C19.9432 34.5949 19.8788 34.5949 19.8222 34.5949C18.147 34.5766 16.546 34.2757 15.0564 33.7467C14.9822 33.7194 14.908 33.692 14.8338 33.6647C9.37889 31.6217 5.50537 26.4504 5.50537 20.3854C5.50537 12.5419 11.9931 6.18494 19.9998 6.18494C28.0065 6.18494 34.4942 12.5419 34.4942 20.3854Z" fill="#C7B299"/>
<path fill-rule="evenodd" clip-rule="evenodd" d="M26.9893 24.8999C24.5878 27.8183 20.6968 28.0099 18.9006 26.2223C18.7601 26.0855 18.6487 25.9213 18.518 25.7571C18.5004 25.821 18.4809 25.8757 18.4633 25.9305C17.5964 29.2412 17.5047 29.9799 16.6202 31.5121C16.2005 32.2418 15.7162 32.9349 15.195 33.6007C15.1579 33.6464 15.1208 33.7102 15.0642 33.7374C14.99 33.7102 14.9158 33.6829 14.8416 33.6554C14.8221 33.6099 14.8143 33.5551 14.8045 33.5095C14.664 32.5063 14.58 31.4939 14.6191 30.4815C14.664 29.1591 14.8319 28.703 16.5734 21.5344C16.6007 21.425 16.5734 21.3337 16.5363 21.2334C16.1165 20.1299 16.0325 19.0171 16.3957 17.8772C17.1884 15.4329 20.0174 15.2414 20.5113 17.2662C20.8179 18.5156 20.0076 20.1481 19.3945 22.565C18.8811 24.5624 21.2747 25.976 23.3227 24.5168C25.2126 23.1761 25.9389 19.9566 25.7984 17.6856C25.5289 13.1436 20.4371 12.1587 17.2157 13.627C13.5199 15.3052 12.6725 19.7923 14.3477 21.8445C14.5624 22.1091 14.7206 22.264 14.6562 22.5286C14.5429 22.9389 14.4512 23.3493 14.3399 23.7597C14.2559 24.0607 13.9943 24.1701 13.678 24.0517C13.063 23.8054 12.5515 23.4223 12.1317 22.9208C10.7182 21.1969 10.3082 17.795 12.1884 14.913C14.2637 11.7209 18.1275 10.435 21.6554 10.8179C25.8726 11.2831 28.5356 14.1104 29.0295 17.3117C29.2346 18.7619 29.0744 22.3552 26.9893 24.8999Z" fill="white"/>
</svg>
