<svg width="41" height="29" viewBox="0 0 41 29" fill="none" xmlns="http://www.w3.org/2000/svg">
  <path fill-rule="evenodd" clip-rule="evenodd" d="M35.1678 14.5906C35.1678 20.8745 31.0073 26.2008 25.2341 28.0796C23.8011 28.5447 22.2646 28.8001 20.6734 28.8001C20.6168 28.8001 20.5523 28.8001 20.4958 28.8001C18.8206 28.7818 17.2196 28.4809 15.73 27.9519C15.6558 27.9246 15.5816 27.8972 15.5074 27.8699C10.0525 25.8269 6.17896 20.6556 6.17896 14.5906C6.17896 6.74707 12.6667 0.390137 20.6734 0.390137C28.6801 0.390137 35.1678 6.74707 35.1678 14.5906Z" fill="#444444" />
  <path fill-rule="evenodd" clip-rule="evenodd" d="M27.6629 19.105C25.2614 22.0235 21.3704 22.215 19.5742 20.4275C19.4337 20.2906 19.3223 20.1264 19.1916 19.9623C19.174 20.0262 19.1545 20.0809 19.1369 20.1356C18.27 23.4463 18.1782 24.185 17.2938 25.7172C16.874 26.447 16.3898 27.1401 15.8686 27.8058C15.8315 27.8515 15.7944 27.9153 15.7378 27.9426C15.6636 27.9153 15.5894 27.888 15.5152 27.8605C15.4957 27.815 15.4879 27.7602 15.4781 27.7146C15.3375 26.7114 15.2536 25.699 15.2926 24.6866C15.3375 23.3642 15.5054 22.9081 17.247 15.7395C17.2743 15.6302 17.247 15.5389 17.2099 15.4385C16.7901 14.3351 16.7061 13.2223 17.0693 12.0824C17.862 9.638 20.691 9.44653 21.1849 11.4713C21.4915 12.7207 20.6812 14.3533 20.0681 16.7702C19.5547 18.7676 21.9483 20.1811 23.9963 18.7219C25.8862 17.3812 26.6125 14.1617 26.472 11.8907C26.2025 7.34878 21.1107 6.3638 17.8893 7.83218C14.1935 9.51035 13.3461 13.9975 15.0213 16.0497C15.236 16.3142 15.3942 16.4692 15.3297 16.7337C15.2165 17.1441 15.1247 17.5545 15.0134 17.9649C14.9295 18.2658 14.6679 18.3753 14.3516 18.2568C13.7366 18.0106 13.2251 17.6275 12.8053 17.1259C11.3918 15.402 10.9818 12.0002 12.8619 9.11811C14.9373 5.92604 18.8011 4.64011 22.329 5.02308C26.5461 5.48829 29.2092 8.31558 29.7031 11.5168C29.9081 12.967 29.748 16.5603 27.6629 19.105Z" fill="#C7B299" />
</svg>