<svg width="46" height="49" viewBox="0 0 46 49" fill="none" xmlns="http://www.w3.org/2000/svg">
  <path d="M21.5625 17.2771C21.5625 16.894 21.4111 16.5265 21.1414 16.2556C20.8718 15.9847 20.5063 15.8325 20.125 15.8325C19.7437 15.8325 19.3782 15.9847 19.1086 16.2556C18.8389 16.5265 18.6875 16.894 18.6875 17.2771V19.1088L17.1091 18.1929C16.9456 18.0966 16.7647 18.0337 16.5768 18.0079C16.389 17.9821 16.198 17.9939 16.0147 18.0426C15.8314 18.0912 15.6595 18.1759 15.5089 18.2917C15.3584 18.4073 15.232 18.5519 15.1372 18.7169C15.0424 18.8819 14.9811 19.064 14.9566 19.253C14.9322 19.4419 14.9451 19.6338 14.9949 19.8177C15.0445 20.0015 15.1298 20.1737 15.246 20.3242C15.3622 20.4748 15.5069 20.6008 15.6716 20.6949L17.25 21.6108L15.6716 22.5267C15.5069 22.6208 15.3622 22.7469 15.246 22.8974C15.1298 23.0479 15.0445 23.2201 14.9949 23.404C14.9451 23.5878 14.9322 23.7797 14.9566 23.9686C14.9811 24.1576 15.0424 24.3398 15.1372 24.5048C15.232 24.6698 15.3584 24.8143 15.5089 24.93C15.6595 25.0457 15.8314 25.1304 16.0147 25.1791C16.198 25.2277 16.389 25.2395 16.5768 25.2138C16.7647 25.188 16.9456 25.1251 17.1091 25.0287L18.6875 24.1128V25.9445C18.6875 26.3277 18.8389 26.6951 19.1086 26.966C19.3782 27.2369 19.7437 27.3891 20.125 27.3891C20.5063 27.3891 20.8718 27.2369 21.1414 26.966C21.4111 26.6951 21.5625 26.3277 21.5625 25.9445V24.1128L23.1409 25.0287C23.3044 25.1251 23.4853 25.188 23.6732 25.2138C23.861 25.2395 24.052 25.2277 24.2353 25.1791C24.4186 25.1304 24.5905 25.0457 24.7411 24.93C24.8916 24.8143 25.018 24.6698 25.1128 24.5048C25.2076 24.3398 25.2689 24.1576 25.2934 23.9686C25.3178 23.7797 25.3049 23.5878 25.2551 23.404C25.2055 23.2201 25.1202 23.0479 25.004 22.8974C24.8878 22.7469 24.7431 22.6208 24.5784 22.5267L23 21.6108L24.5784 20.6949C24.7431 20.6008 24.8878 20.4748 25.004 20.3242C25.1202 20.1737 25.2055 20.0015 25.2551 19.8177C25.3049 19.6338 25.3178 19.4419 25.2934 19.253C25.2689 19.064 25.2076 18.8819 25.1128 18.7169C25.018 18.5519 24.8916 18.4073 24.7411 18.2917C24.5905 18.1759 24.4186 18.0912 24.2353 18.0426C24.052 17.9939 23.861 17.9821 23.6732 18.0079C23.4853 18.0337 23.3044 18.0966 23.1409 18.1929L21.5625 19.1088V17.2771ZM15.8125 30.2783C15.4313 30.2783 15.0656 30.4305 14.796 30.7014C14.5265 30.9723 14.375 31.3397 14.375 31.7228C14.375 32.106 14.5265 32.4734 14.796 32.7443C15.0656 33.0152 15.4313 33.1674 15.8125 33.1674H30.1875C30.5687 33.1674 30.9344 33.0152 31.204 32.7443C31.4735 32.4734 31.625 32.106 31.625 31.7228C31.625 31.3397 31.4735 30.9723 31.204 30.7014C30.9344 30.4305 30.5687 30.2783 30.1875 30.2783H15.8125ZM15.8125 36.0566C15.4313 36.0566 15.0656 36.2088 14.796 36.4797C14.5265 36.7506 14.375 37.118 14.375 37.5011C14.375 37.8843 14.5265 38.2517 14.796 38.5226C15.0656 38.7935 15.4313 38.9457 15.8125 38.9457H30.1875C30.5687 38.9457 30.9344 38.7935 31.204 38.5226C31.4735 38.2517 31.625 37.8843 31.625 37.5011C31.625 37.118 31.4735 36.7506 31.204 36.4797C30.9344 36.2088 30.5687 36.0566 30.1875 36.0566H15.8125Z" fill="#C7B299" />
  <path d="M40.25 41.835V14.388L27.3125 1.38684H11.5C9.97497 1.38684 8.51247 1.99562 7.43414 3.07927C6.3558 4.16291 5.75 5.63264 5.75 7.16514V41.835C5.75 43.3675 6.3558 44.8372 7.43414 45.9208C8.51247 47.0045 9.97497 47.6133 11.5 47.6133H34.5C36.025 47.6133 37.4876 47.0045 38.5659 45.9208C39.6442 44.8372 40.25 43.3675 40.25 41.835ZM27.3125 10.0543C27.3125 11.2037 27.7668 12.306 28.5756 13.1187C29.3844 13.9315 30.4812 14.388 31.625 14.388H37.375V41.835C37.375 42.6012 37.0721 43.3361 36.5329 43.8779C35.9938 44.4197 35.2625 44.7241 34.5 44.7241H11.5C10.7375 44.7241 10.0062 44.4197 9.46706 43.8779C8.92791 43.3361 8.625 42.6012 8.625 41.835V7.16514C8.625 6.39889 8.92791 5.66402 9.46706 5.12221C10.0062 4.58038 10.7375 4.27599 11.5 4.27599H27.3125V10.0543Z" fill="#C7B299" />
</svg>