<svg width="46" height="49" viewBox="0 0 46 49" fill="none" xmlns="http://www.w3.org/2000/svg">
  <path d="M40.25 41.835V14.388L27.3125 1.38684H11.5C9.97497 1.38684 8.51247 1.99562 7.43414 3.07927C6.3558 4.16291 5.75 5.63264 5.75 7.16514V41.835C5.75 43.3675 6.3558 44.8372 7.43414 45.9208C8.51247 47.0045 9.97497 47.6133 11.5 47.6133H34.5C36.025 47.6133 37.4876 47.0045 38.5659 45.9208C39.6442 44.8372 40.25 43.3675 40.25 41.835ZM27.3125 10.0543C27.3125 11.2037 27.7668 12.306 28.5756 13.1187C29.3844 13.9315 30.4812 14.388 31.625 14.388H37.375V41.835C37.375 42.6012 37.0721 43.3361 36.5329 43.8779C35.9938 44.4197 35.2625 44.7241 34.5 44.7241H11.5C10.7375 44.7241 10.0062 44.4197 9.46706 43.8779C8.92791 43.3361 8.625 42.6012 8.625 41.835V7.16514C8.625 6.39889 8.92791 5.66402 9.46706 5.12221C10.0062 4.58038 10.7375 4.27599 11.5 4.27599H27.3125V10.0543Z" fill="#C7B299" />
  <path d="M13.2336 42.0861C12.6732 41.8609 12.2217 41.4259 11.9743 40.8727C11.4137 39.7517 11.6006 38.6308 12.2043 37.6889C12.7736 36.8019 13.7166 36.0478 14.7832 35.4151C16.1343 34.6451 17.5624 34.0204 19.0439 33.5516C20.1945 31.4731 21.2142 29.3242 22.0972 27.1174C21.5693 25.912 21.1554 24.6594 20.8609 23.376C20.6137 22.2204 20.5188 21.0762 20.7287 20.094C20.9443 19.0711 21.5164 18.1525 22.5974 17.7162C23.1494 17.4937 23.7474 17.3695 24.3282 17.4937C24.6203 17.5562 24.8949 17.6832 25.1321 17.8657C25.3693 18.0481 25.5631 18.2812 25.6996 18.5483C25.9526 19.022 26.0446 19.5768 26.0647 20.1026C26.0848 20.6457 26.0302 21.2467 25.9296 21.8766C25.688 23.35 25.1533 25.1528 24.4346 27.0597C25.2278 28.7643 26.1707 30.3945 27.252 31.9308C28.5317 31.8292 29.8188 31.8777 31.0873 32.0752C32.1338 32.2659 33.1976 32.6386 33.8473 33.4187C34.1923 33.8347 34.4022 34.3432 34.4223 34.9153C34.4424 35.47 34.2872 36.019 34.0256 36.5419C33.799 37.0264 33.4475 37.4414 33.0078 37.7437C32.5731 38.0287 32.0599 38.1682 31.5416 38.1425C30.5899 38.102 29.6613 37.5762 28.8592 36.9377C27.8838 36.1273 27.0049 35.2063 26.24 34.193C24.2959 34.4147 22.3747 34.8072 20.4987 35.366C19.6395 36.8971 18.6589 38.356 17.5662 39.7286C16.7267 40.7398 15.8153 41.6239 14.901 42.0023C14.3758 42.2411 13.7799 42.2711 13.2336 42.0861ZM17.1982 36.5938C16.7209 36.8135 16.2782 37.0446 15.8786 37.2815C14.9356 37.8419 14.3232 38.388 14.0184 38.8619C13.7482 39.2808 13.7424 39.5842 13.9034 39.9049C13.9322 39.9684 13.9609 40.0088 13.9782 40.0319C14.0124 40.0228 14.0461 40.0112 14.0788 39.9973C14.4727 39.8355 15.0994 39.3183 15.9044 38.3447C16.3623 37.7814 16.794 37.1972 17.1982 36.5938ZM21.9132 32.7513C22.8732 32.5262 23.842 32.3401 24.8169 32.1937C24.2934 31.3887 23.8043 30.5616 23.3507 29.7148C22.8997 30.7393 22.4204 31.7509 21.9132 32.7484V32.7513ZM28.9454 34.0514C29.3767 34.5224 29.7964 34.9182 30.196 35.236C30.886 35.7849 31.3662 35.9669 31.6278 35.9756C31.6979 35.9848 31.7689 35.9695 31.829 35.9323C31.9486 35.8374 32.0418 35.7129 32.0993 35.5711C32.2015 35.3951 32.2597 35.1968 32.2689 34.9933C32.2672 34.9254 32.2406 34.8606 32.1942 34.8112C32.0447 34.6322 31.6192 34.3721 30.7049 34.2074C30.1234 34.1097 29.535 34.0585 28.9454 34.0543V34.0514ZM23.2242 23.922C23.4661 23.1378 23.6582 22.3387 23.7992 21.5299C23.8883 20.9867 23.9228 20.5389 23.9084 20.1864C23.9092 19.9919 23.8781 19.7986 23.8164 19.6144C23.6726 19.6322 23.5322 19.6711 23.3996 19.7299C23.1494 19.831 22.9453 20.0361 22.836 20.5475C22.721 21.1022 22.7498 21.9026 22.9683 22.9224C23.0373 23.2431 23.1236 23.5782 23.227 23.922H23.2242Z" fill="#C7B299" />
</svg>