<svg width="41" height="40" viewBox="0 0 41 40" fill="none" xmlns="http://www.w3.org/2000/svg">
  <path fill-rule="evenodd" clip-rule="evenodd" d="M30.6713 9.79753C36.1935 15.2084 36.1935 23.9816 30.6713 29.3924C25.1491 34.8035 16.1978 34.8035 10.6756 29.3924C5.15338 23.9816 5.15338 15.2084 10.6756 9.79753C16.1978 4.3865 25.1491 4.3865 30.6713 9.79753Z" fill="#444444" />
  <path fill-rule="evenodd" clip-rule="evenodd" d="M28.32 13.2509L25.9319 27.614C25.8127 28.2992 24.8969 28.5217 24.2526 28.0234C22.2999 26.5105 20.4292 25.06 18.6405 23.6718C17.8399 23.0488 17.713 22.0075 18.3496 21.3402C19.8375 19.7828 21.3372 18.2166 22.8447 16.6415C23.1082 16.3656 22.6708 15.9917 22.3448 16.2053C19.9937 17.7094 17.6856 19.1866 15.4166 20.6371C14.9343 20.9487 14.2996 20.9931 13.7549 20.7529C12.4914 20.2011 11.2573 19.6582 10.0584 19.1332C9.40422 18.8484 9.47646 17.9585 10.158 17.736L26.9219 12.3788C27.6385 12.1473 28.4294 12.6368 28.32 13.2509Z" fill="#C7B299" />
</svg>