<svg width="40" height="40" viewBox="0 0 40 40" fill="none" xmlns="http://www.w3.org/2000/svg">
  <path fill-rule="evenodd" clip-rule="evenodd" d="M29.9977 10.3977C35.5199 15.8086 35.5199 24.5817 29.9977 29.9926C24.4755 35.4037 15.5242 35.4037 10.002 29.9926C4.47979 24.5817 4.47979 15.8086 10.002 10.3977C15.5242 4.98666 24.4755 4.98666 29.9977 10.3977Z" fill="#C7B299" />
  <path fill-rule="evenodd" clip-rule="evenodd" d="M27.6469 13.8507L25.2588 28.2138C25.1396 28.899 24.2238 29.1215 23.5795 28.6232C21.6268 27.1103 19.7561 25.6598 17.9674 24.2716C17.1668 23.6486 17.0399 22.6073 17.6765 21.94C19.1644 20.3826 20.6641 18.8164 22.1716 17.2412C22.4351 16.9654 21.9977 16.5915 21.6717 16.8051C19.3206 18.3092 17.0125 19.7864 14.7435 21.2369C14.2612 21.5485 13.6265 21.5929 13.0818 21.3527C11.8183 20.8009 10.5842 20.258 9.38527 19.733C8.73112 19.4482 8.80336 18.5583 9.48486 18.3358L26.2488 12.9786C26.9654 12.7471 27.7563 13.2366 27.6469 13.8507Z" fill="white" />
</svg>