<svg width="41" height="40" viewBox="0 0 41 40" fill="none" xmlns="http://www.w3.org/2000/svg">
  <path fill-rule="evenodd" clip-rule="evenodd" d="M30.6713 9.79754C36.1935 15.2085 36.1935 23.9815 30.6713 29.3926C25.1491 34.8035 16.1978 34.8035 10.6756 29.3925C5.15338 23.9815 5.15338 15.2086 10.6756 9.79754C16.1978 4.3865 25.1491 4.3865 30.6713 9.79754Z" fill="#444444" />
  <path fill-rule="evenodd" clip-rule="evenodd" d="M11.9683 28.1705C12.0678 27.7967 12.1498 27.4764 12.2416 27.156C12.5306 26.1237 12.8216 25.1003 13.0949 24.0681C13.1301 23.9167 13.1223 23.712 13.0402 23.5698C10.3709 18.5773 13.1223 12.5438 18.7343 11.2533C23.8289 10.0875 28.3963 13.4514 29.232 17.9544C30.1029 22.6531 26.9611 27.1115 22.2121 27.9303C20.3218 28.2506 18.5156 27.9747 16.7894 27.156C16.6351 27.0848 16.4184 27.0581 16.2544 27.1026C13.9658 27.6543 12.4311 28.0815 11.9683 28.1705ZM13.9932 26.2128C14.8562 25.9903 15.655 25.7945 16.4458 25.5809C16.6722 25.5186 16.8441 25.5542 17.0355 25.6609C18.5332 26.5064 20.1325 26.8179 21.8391 26.5508C25.7797 25.9279 28.4783 22.315 27.8788 18.4705C27.252 14.4838 23.4384 11.8051 19.406 12.5348C14.5282 13.4157 11.9409 18.7464 14.3661 22.9646C14.6376 23.4362 14.7099 23.8188 14.5282 24.3171C14.3115 24.9134 14.1846 25.5364 13.9932 26.2128Z" fill="#C7B299" />
  <path fill-rule="evenodd" clip-rule="evenodd" d="M22.9638 23.605C21.265 23.5429 18.5683 22.2347 16.7152 19.0846C16.061 17.9635 16.1528 16.6909 17.1155 15.81C17.4416 15.5164 17.8516 15.5875 18.2325 15.6498C18.3222 15.6676 18.4238 15.801 18.4687 15.9079C18.7128 16.4595 18.9589 17.0024 19.1677 17.572C19.2771 17.8656 19.076 18.1503 18.6328 18.6397C18.4961 18.7998 18.459 18.9423 18.5683 19.1202C19.2771 20.3038 20.275 21.158 21.5833 21.6563C21.7747 21.7276 21.9192 21.683 22.0363 21.5407C22.7276 20.7131 22.7999 20.4728 23.163 20.6418C24.9165 21.4605 25.0513 21.4961 25.0611 21.6919C25.1431 23.1423 23.7898 23.6585 22.9638 23.605Z" fill="#C7B299" />
</svg>