<svg width="26" height="26" viewBox="0 0 26 26" fill="none" xmlns="http://www.w3.org/2000/svg">
  <path d="M7.20197 21.8773L7.5932 22.1092C9.2371 23.0847 11.1218 23.6007 13.0437 23.6017H13.0479C18.9502 23.6017 23.754 18.799 23.7566 12.8962C23.7574 10.0356 22.6448 7.34575 20.6229 5.32236C18.6008 3.29903 15.9124 2.18404 13.0519 2.18287C7.14495 2.18287 2.34123 6.98492 2.33889 12.8875C2.33808 14.9102 2.90401 16.8801 3.97606 18.5847L4.23095 18.9896L3.14883 22.94L7.20197 21.8773ZM0.0554199 26L1.88329 19.3259C0.755892 17.3726 0.162724 15.1567 0.163589 12.8866C0.16643 5.78506 5.94596 0.00738525 13.0479 0.00738525C16.4943 0.00886786 19.7291 1.35026 22.1618 3.78465C24.5942 6.21922 25.9332 9.45532 25.932 12.8971C25.929 19.9983 20.1487 25.777 13.0479 25.777C13.0474 25.777 13.0482 25.777 13.0479 25.777H13.0423C10.8862 25.7761 8.76736 25.2354 6.88556 24.2091L0.0554199 26Z" fill="white" />
  <path d="M3.14288 18.5934L3.35685 18.9581L3.24425 19.3657L1.92523 24.1402L6.84441 22.8496L7.23281 22.7477L7.58382 22.9427C9.23265 23.8587 11.1215 24.3224 13.0452 24.3224C19.3459 24.3224 24.4912 19.1969 24.4912 12.9015C24.4912 9.83379 23.2948 6.97529 21.1456 4.80104C18.9714 2.65183 16.1129 1.45547 13.0452 1.45547C6.74449 1.45547 1.59914 6.58098 1.59914 12.8764C1.59914 14.9085 2.12973 16.8665 3.14288 18.5934Z" stroke="black" stroke-width="2" />
  <path d="M3.14288 18.5934L3.35685 18.9581L3.24425 19.3657L1.92523 24.1402L6.84441 22.8496L7.23281 22.7477L7.58382 22.9427C9.23265 23.8587 11.1215 24.3224 13.0452 24.3224C19.3459 24.3224 24.4912 19.1969 24.4912 12.9015C24.4912 9.83379 23.2948 6.97529 21.1456 4.80104C18.9714 2.65183 16.1129 1.45547 13.0452 1.45547C6.74449 1.45547 1.59914 6.58098 1.59914 12.8764C1.59914 14.9085 2.12973 16.8665 3.14288 18.5934Z" stroke="url(#paint0_linear_4001_322)" stroke-width="2" />
  <path fill-rule="evenodd" clip-rule="evenodd" d="M9.82765 7.50701C9.58648 6.97092 9.33264 6.96017 9.10321 6.95078C8.91559 6.94275 8.70074 6.94324 8.48625 6.94324C8.27165 6.94324 7.9228 7.02386 7.62788 7.34602C7.33272 7.66818 6.50098 8.44692 6.50098 10.0308C6.50098 11.6148 7.6547 13.1453 7.8155 13.3603C7.97648 13.575 10.0426 16.9291 13.3148 18.2195C16.0343 19.2919 16.5877 19.0786 17.1779 19.025C17.7682 18.9713 19.0826 18.2464 19.3509 17.4946C19.6192 16.743 19.6192 16.0987 19.5387 15.9641C19.4582 15.8299 19.2436 15.7494 18.9216 15.5884C18.5996 15.4274 17.0169 14.6485 16.7218 14.5412C16.4267 14.4339 16.212 14.3802 15.9974 14.7025C15.7827 15.0245 15.1662 15.7494 14.9783 15.9641C14.7905 16.1792 14.6027 16.206 14.2807 16.0451C13.9588 15.8836 12.9219 15.544 11.6919 14.4473C10.7349 13.594 10.0888 12.5403 9.90091 12.218C9.71311 11.896 9.88083 11.7216 10.0423 11.5611C10.1869 11.4169 10.3643 11.1854 10.5253 10.9974C10.6859 10.8094 10.7396 10.6752 10.8469 10.4606C10.9542 10.2456 10.9006 10.0576 10.8201 9.8966C10.7396 9.73562 10.1139 8.14354 9.82765 7.50701Z" fill="white" />
  <path fill-rule="evenodd" clip-rule="evenodd" d="M9.82765 7.50701C9.58648 6.97092 9.33264 6.96017 9.10321 6.95078C8.91559 6.94275 8.70074 6.94324 8.48625 6.94324C8.27165 6.94324 7.9228 7.02386 7.62788 7.34602C7.33272 7.66818 6.50098 8.44692 6.50098 10.0308C6.50098 11.6148 7.6547 13.1453 7.8155 13.3603C7.97648 13.575 10.0426 16.9291 13.3148 18.2195C16.0343 19.2919 16.5877 19.0786 17.1779 19.025C17.7682 18.9713 19.0826 18.2464 19.3509 17.4946C19.6192 16.743 19.6192 16.0987 19.5387 15.9641C19.4582 15.8299 19.2436 15.7494 18.9216 15.5884C18.5996 15.4274 17.0169 14.6485 16.7218 14.5412C16.4267 14.4339 16.212 14.3802 15.9974 14.7025C15.7827 15.0245 15.1662 15.7494 14.9783 15.9641C14.7905 16.1792 14.6027 16.206 14.2807 16.0451C13.9588 15.8836 12.9219 15.544 11.6919 14.4473C10.7349 13.594 10.0888 12.5403 9.90091 12.218C9.71311 11.896 9.88083 11.7216 10.0423 11.5611C10.1869 11.4169 10.3643 11.1854 10.5253 10.9974C10.6859 10.8094 10.7396 10.6752 10.8469 10.4606C10.9542 10.2456 10.9006 10.0576 10.8201 9.8966C10.7396 9.73562 10.1139 8.14354 9.82765 7.50701Z" fill="url(#paint1_linear_4001_322)" />
  <defs>
    <linearGradient id="paint0_linear_4001_322" x1="12.9936" y1="25.5483" x2="12.9936" y2="0.455465" gradientUnits="userSpaceOnUse">
      <stop stop-color="#20B038" />
      <stop offset="1" stop-color="#60D66A" />
    </linearGradient>
    <linearGradient id="paint1_linear_4001_322" x1="6.50098" y1="13.0114" x2="19.5856" y2="13.0114" gradientUnits="userSpaceOnUse">
      <stop stop-color="#20B038" />
      <stop offset="1" stop-color="#60D66A" />
    </linearGradient>
  </defs>
</svg>