<svg width="40" height="40" viewBox="0 0 40 40" fill="none" xmlns="http://www.w3.org/2000/svg">
  <path fill-rule="evenodd" clip-rule="evenodd" d="M29.9977 10.3975C35.5199 15.8084 35.5199 24.5814 29.9977 29.9925C24.4755 35.4034 15.5242 35.4034 10.002 29.9924C4.47979 24.5814 4.47979 15.8085 10.002 10.3975C15.5242 4.98641 24.4755 4.98641 29.9977 10.3975Z" fill="#C7B299" />
  <path fill-rule="evenodd" clip-rule="evenodd" d="M11.2949 28.7704C11.3945 28.3967 11.4765 28.0763 11.5683 27.756C11.8573 26.7236 12.1482 25.7003 12.4216 24.6681C12.4568 24.5167 12.449 24.312 12.3669 24.1697C9.69758 19.1773 12.449 13.1437 18.061 11.8533C23.1555 10.6875 27.723 14.0514 28.5587 18.5544C29.4296 23.2531 26.2878 27.7115 21.5388 28.5303C19.6485 28.8506 17.8423 28.5747 16.1161 27.756C15.9618 27.6848 15.7451 27.6581 15.5811 27.7026C13.2925 28.2543 11.7577 28.6814 11.2949 28.7704ZM13.3199 26.8127C14.1829 26.5903 14.9816 26.3945 15.7724 26.1808C15.9989 26.1185 16.1708 26.1541 16.3621 26.2609C17.8599 27.1064 19.4592 27.4178 21.1658 27.1508C25.1063 26.5279 27.8049 22.9149 27.2055 19.0705C26.5787 15.0837 22.765 12.405 18.7327 13.1347C13.8549 14.0157 11.2675 19.3464 13.6928 23.5645C13.9642 24.0362 14.0365 24.4188 13.8549 24.9171C13.6381 25.5133 13.5112 26.1363 13.3199 26.8127Z" fill="white" />
  <path fill-rule="evenodd" clip-rule="evenodd" d="M22.2905 24.2048C20.5917 24.1427 17.8949 22.8345 16.0418 19.6844C15.3877 18.5633 15.4795 17.2907 16.4422 16.4098C16.7683 16.1162 17.1783 16.1873 17.5591 16.2496C17.6489 16.2674 17.7505 16.4008 17.7954 16.5077C18.0395 17.0593 18.2856 17.6022 18.4944 18.1717C18.6038 18.4654 18.4026 18.7501 17.9594 19.2395C17.8228 19.3996 17.7857 19.5421 17.8949 19.72C18.6038 20.9036 19.6017 21.7578 20.91 22.2561C21.1013 22.3273 21.2458 22.2828 21.363 22.1405C22.0542 21.3129 22.1265 21.0726 22.4896 21.2416C24.2432 22.0603 24.3779 22.0959 24.3877 22.2917C24.4697 23.7421 23.1165 24.2583 22.2905 24.2048Z" fill="white" />
</svg>