<svg width="40" height="40" viewBox="0 0 40 40" fill="none" xmlns="http://www.w3.org/2000/svg">
  <path fill-rule="evenodd" clip-rule="evenodd" d="M29.9977 10.3977C35.5199 15.8086 35.5199 24.5817 29.9977 29.9926C24.4755 35.4037 15.5242 35.4037 10.002 29.9926C4.47979 24.5817 4.47979 15.8086 10.002 10.3977C15.5242 4.98666 24.4755 4.98666 29.9977 10.3977Z" fill="#C7B299" />
  <path fill-rule="evenodd" clip-rule="evenodd" d="M12.9329 25.9412C12.2612 25.7277 11.8062 25.2917 11.57 24.6421C10.9802 23.0491 10.8064 16.3843 11.9429 15.0673C12.3334 14.6223 12.8333 14.3554 13.4309 14.2931C16.5005 13.9728 25.9809 14.0172 27.0802 14.3998C27.7247 14.6223 28.1796 15.0406 28.4237 15.6634C29.0701 17.3097 29.0974 23.3073 28.3436 24.8912C28.1347 25.3183 27.8067 25.6298 27.381 25.8433C26.2172 26.4396 14.4405 26.4306 12.9329 25.9412ZM17.8088 22.8179C19.6521 21.8836 21.4857 20.9492 23.3388 20.0059C21.4857 19.0538 19.6521 18.1195 17.8088 17.1762C17.8088 19.0717 17.8088 20.9314 17.8088 22.8179Z" fill="white" />
</svg>