<svg width="41" height="40" viewBox="0 0 41 40" fill="none" xmlns="http://www.w3.org/2000/svg">
  <path fill-rule="evenodd" clip-rule="evenodd" d="M30.6713 9.79753C36.1935 15.2084 36.1935 23.9816 30.6713 29.3924C25.1491 34.8035 16.1978 34.8035 10.6756 29.3924C5.15338 23.9816 5.15338 15.2084 10.6756 9.79753C16.1978 4.3865 25.1491 4.3865 30.6713 9.79753Z" fill="#444444" />
  <path fill-rule="evenodd" clip-rule="evenodd" d="M13.6065 25.3414C12.9348 25.1278 12.4798 24.6918 12.2436 24.0422C11.6538 22.4493 11.48 15.7844 12.6165 14.4674C13.007 14.0224 13.5069 13.7556 14.1045 13.6933C17.1741 13.373 26.6544 13.4173 27.7538 13.8C28.3983 14.0224 28.8532 14.4407 29.0973 15.0636C29.7437 16.7098 29.771 22.7074 29.0172 24.2914C28.8083 24.7185 28.4802 25.0299 28.0545 25.2435C26.8908 25.8398 15.114 25.8308 13.6065 25.3414ZM18.4824 22.218C20.3257 21.2837 22.1593 20.3493 24.0124 19.406C22.1593 18.454 20.3257 17.5197 18.4824 16.5764C18.4824 18.4719 18.4824 20.3315 18.4824 22.218Z" fill="#C7B299" />
</svg>